<?xml version="1.0" encoding="utf-8"?>
<svg xmlns="http://www.w3.org/2000/svg" width="1041.277" height="554.141" viewBox="0 0 1041.277 554.141"
  xmlns:bx="https://boxy-svg.com">
  <defs>
    <radialGradient gradientUnits="userSpaceOnUse" cx="1044.396" cy="388.354" r="393.15" id="gradient-7"
      gradientTransform="matrix(2.041103, 1.304251, -0.538443, 0.842659, -894.224919, -1326.612564)">
      <stop offset="0" style="stop-color: rgb(62, 132, 235);" />
      <stop offset="0.455" style="stop-color: rgb(23, 134, 232);" />
      <stop offset="1" style="stop-color: rgb(174, 78, 233);" />
    </radialGradient>
    <filter id="filter-3" color-interpolation-filters="sRGB" x="-50%" y="-50%" width="200%" height="200%">
      <feGaussianBlur stdDeviation="70 70" edgeMode="none" />
    </filter>
    <filter id="filter-2" color-interpolation-filters="sRGB" x="-50%" y="-50%" width="200%" height="200%">
      <feGaussianBlur stdDeviation="70 70" edgeMode="none" />
    </filter>
    <filter id="filter-1" color-interpolation-filters="sRGB" x="-50%" y="-50%" width="200%" height="200%">
      <feGaussianBlur stdDeviation="70 70" edgeMode="none" />
    </filter>
    <filter id="gaussian-blur-filter-0" color-interpolation-filters="sRGB" x="-50%" y="-50%" width="200%" height="200%">
      <feGaussianBlur stdDeviation="70 70" edgeMode="none" />
    </filter>
    <linearGradient gradientUnits="userSpaceOnUse" x1="1525.043" y1="348.591" x2="1525.043" y2="586.501" id="gradient-2"
      gradientTransform="matrix(0.838815, 0.544423, -0.915036, 1.409865, 328.759954, -996.286514)">
      <stop offset="0" style="stop-color: rgb(2, 54, 58);" />
      <stop offset="0.48" style="stop-color: rgb(43, 207, 204);" />
      <stop offset="1" style="stop-color: rgb(5, 103, 104);" />
    </linearGradient>
    <linearGradient gradientUnits="userSpaceOnUse" x1="1695.171" y1="462.096" x2="1695.171" y2="613.478" id="gradient-1"
      gradientTransform="matrix(0.701737, 0.712443, -1.083343, 1.067083, 624.862314, -1218.799701)">
      <stop offset="0" style="stop-color: rgb(2, 54, 58);" />
      <stop offset="0.542" style="stop-color: rgb(43, 207, 204);" />
      <stop offset="1" style="stop-color: rgb(5, 103, 104);" />
    </linearGradient>
    <linearGradient gradientUnits="userSpaceOnUse" x1="1525.043" y1="348.591" x2="1525.043" y2="586.501" id="gradient-3"
      gradientTransform="matrix(0.558974, -0.829197, 1.393671, 0.939511, -339.751922, 1749.687417)">
      <stop offset="0" style="stop-color: rgb(2, 54, 58);" />
      <stop offset="0.48" style="stop-color: rgb(43, 207, 204);" />
      <stop offset="1" style="stop-color: rgb(5, 103, 104);" />
    </linearGradient>
    <linearGradient gradientUnits="userSpaceOnUse" x1="1695.171" y1="462.096" x2="1695.171" y2="613.478" id="gradient-4"
      gradientTransform="matrix(0.724575, -0.689201, 1.048003, 1.101812, -557.064791, 1449.749058)">
      <stop offset="0" style="stop-color: rgb(2, 54, 58);" />
      <stop offset="0.542" style="stop-color: rgb(43, 207, 204);" />
      <stop offset="1" style="stop-color: rgb(5, 103, 104);" />
    </linearGradient>
    <linearGradient gradientUnits="userSpaceOnUse" x1="1525.043" y1="348.591" x2="1525.043" y2="586.501" id="gradient-5"
      gradientTransform="matrix(-0.77752, -0.62887, 0.909035, -1.12393, 2347.587437, 2389.142858)">
      <stop offset="0" style="stop-color: rgb(91, 115, 239);" />
      <stop offset="0.48" style="stop-color: rgb(45, 25, 88);" />
      <stop offset="1" style="stop-color: rgb(53, 25, 75);" />
    </linearGradient>
    <linearGradient gradientUnits="userSpaceOnUse" x1="1695.171" y1="462.096" x2="1695.171" y2="613.478" id="gradient-6"
      gradientTransform="matrix(-0.701735, -0.712444, 1.083344, -1.067083, 2139.453401, 2650.612832)">
      <stop offset="0" style="stop-color: rgb(36, 163, 238);" />
      <stop offset="0.542" style="stop-color: rgb(53, 35, 110);" />
      <stop offset="1" style="stop-color: rgb(155, 88, 232);" />
    </linearGradient>
    <linearGradient gradientUnits="userSpaceOnUse" x1="157.797" y1="40.92" x2="157.797" y2="70.486" id="gradient-8"
      gradientTransform="matrix(0.009255, 0.999966, -0.104375, 0.000966, 201.133624, -102.803941)">
      <stop offset="0" style="stop-color: rgb(255, 255, 255); stop-opacity: 0;" />
      <stop offset="0.764" style="stop-color: rgb(255, 255, 255); stop-opacity: 0;" />
      <stop offset="1" style="stop-color: rgb(0% 0% 0%)" />
    </linearGradient>
    <linearGradient gradientUnits="userSpaceOnUse" x1="127.583" y1="137.81" x2="127.583" y2="187.172" id="gradient-0"
      gradientTransform="matrix(0.742999, 0.669299, -1.294999, 1.437625, 223.596532, -143.936721)">
      <stop offset="0" style="stop-opacity: 0;" />
      <stop offset="1" style="" />
    </linearGradient>
    <linearGradient gradientUnits="userSpaceOnUse" x1="125.279" y1="101.856" x2="125.279" y2="126.207" id="gradient-9"
      gradientTransform="matrix(0.134145, 0.990972, -1.502641, 0.203412, 278.719686, -35.956937)">
      <stop offset="0" style="stop-color: rgb(0, 0, 0); stop-opacity: 0;" />
      <stop offset="1" style="stop-color: rgb(0% 0% 0%)" />
    </linearGradient>
  </defs>
  <title>Powered by React</title>
  <g id="Group_24" data-name="Group 24" transform="translate(-440 -263)">
    <g id="Group_23" data-name="Group 23" transform="translate(439.989 262.965)">
      <path id="Path_299" data-name="Path 299"
        d="M1040.82,611.12q-1.74,3.75-3.47,7.4-2.7,5.67-5.33,11.12c-.78,1.61-1.56,3.19-2.32,4.77-8.6,17.57-16.63,33.11-23.45,45.89A73.21,73.21,0,0,1,942.44,719l-151.65,1.65h-1.6l-13,.14-11.12.12-34.1.37h-1.38l-17.36.19h-.53l-107,1.16-95.51,1-11.11.12-69,.75H429l-44.75.48h-.48l-141.5,1.53-42.33.46a87.991,87.991,0,0,1-10.79-.54h0c-1.22-.14-2.44-.3-3.65-.49a87.38,87.38,0,0,1-51.29-27.54C116,678.37,102.75,655,93.85,629.64q-1.93-5.49-3.6-11.12C59.44,514.37,97,380,164.6,290.08q4.25-5.64,8.64-11l.07-.08c20.79-25.52,44.1-46.84,68.93-62,44-26.91,92.75-34.49,140.7-11.9,40.57,19.12,78.45,28.11,115.17,30.55,3.71.24,7.42.42,11.11.53,84.23,2.65,163.17-27.7,255.87-47.29,3.69-.78,7.39-1.55,11.12-2.28,66.13-13.16,139.49-20.1,226.73-5.51a189.089,189.089,0,0,1,26.76,6.4q5.77,1.86,11.12,4c41.64,16.94,64.35,48.24,74,87.46q1.37,5.46,2.37,11.11C1134.3,384.41,1084.19,518.23,1040.82,611.12Z"
        transform="translate(-79.34 -172.91)" fill="#f2f2f2" />
      <path id="Path_300" data-name="Path 300"
        d="M576.36,618.52a95.21,95.21,0,0,1-1.87,11.12h93.7V618.52Zm-78.25,62.81,11.11-.09V653.77c-3.81-.17-7.52-.34-11.11-.52ZM265.19,618.52v11.12h198.5V618.52ZM1114.87,279h-74V191.51q-5.35-2.17-11.12-4V279H776.21V186.58c-3.73.73-7.43,1.5-11.12,2.28V279H509.22V236.15c-3.69-.11-7.4-.29-11.11-.53V279H242.24V217c-24.83,15.16-48.14,36.48-68.93,62h-.07v.08q-4.4,5.4-8.64,11h8.64V618.52h-83q1.66,5.63,3.6,11.12h79.39v93.62a87,87,0,0,0,12.2,2.79c1.21.19,2.43.35,3.65.49h0a87.991,87.991,0,0,0,10.79.54l42.33-.46v-97H498.11v94.21l11.11-.12V629.64H765.09V721l11.12-.12V629.64H1029.7v4.77c.76-1.58,1.54-3.16,2.32-4.77q2.63-5.45,5.33-11.12,1.73-3.64,3.47-7.4v-321h76.42Q1116.23,284.43,1114.87,279ZM242.24,618.52V290.08H498.11V618.52Zm267,0V290.08H765.09V618.52Zm520.48,0H776.21V290.08H1029.7Z"
        transform="translate(-79.34 -172.91)" opacity="0.1" />
      <path id="Path_301" data-name="Path 301"
        d="M863.09,533.65v13l-151.92,1.4-1.62.03-57.74.53-1.38.02-17.55.15h-.52l-106.98.99L349.77,551.4h-.15l-44.65.42-.48.01-198.4,1.82v-15l46.65-28,93.6-.78,2-.01.66-.01,2-.03,44.94-.37,2.01-.01.64-.01,2-.01L315,509.3l.38-.01,35.55-.3h.29l277.4-2.34,6.79-.05h.68l5.18-.05,37.65-.31,2-.03,1.85-.02h.96l11.71-.09,2.32-.03,3.11-.02,9.75-.09,15.47-.13,2-.02,3.48-.02h.65l74.71-.64Z"
        fill="#65617d" />
      <path id="Path_302" data-name="Path 302"
        d="M863.09,533.65v13l-151.92,1.4-1.62.03-57.74.53-1.38.02-17.55.15h-.52l-106.98.99L349.77,551.4h-.15l-44.65.42-.48.01-198.4,1.82v-15l46.65-28,93.6-.78,2-.01.66-.01,2-.03,44.94-.37,2.01-.01.64-.01,2-.01L315,509.3l.38-.01,35.55-.3h.29l277.4-2.34,6.79-.05h.68l5.18-.05,37.65-.31,2-.03,1.85-.02h.96l11.71-.09,2.32-.03,3.11-.02,9.75-.09,15.47-.13,2-.02,3.48-.02h.65l74.71-.64Z"
        opacity="0.2" />
      <path id="Path_303" data-name="Path 303"
        d="M375.44,656.57v24.49a6.13,6.13,0,0,1-3.5,5.54,6,6,0,0,1-2.5.6l-34.9.74a6,6,0,0,1-2.7-.57,6.12,6.12,0,0,1-3.57-5.57V656.57Z"
        transform="translate(-79.34 -172.91)" fill="#3f3d56" />
      <path id="Path_304" data-name="Path 304"
        d="M375.44,656.57v24.49a6.13,6.13,0,0,1-3.5,5.54,6,6,0,0,1-2.5.6l-34.9.74a6,6,0,0,1-2.7-.57,6.12,6.12,0,0,1-3.57-5.57V656.57Z"
        transform="translate(-79.34 -172.91)" opacity="0.1" />
      <path id="Path_305" data-name="Path 305"
        d="M377.44,656.57v24.49a6.13,6.13,0,0,1-3.5,5.54,6,6,0,0,1-2.5.6l-34.9.74a6,6,0,0,1-2.7-.57,6.12,6.12,0,0,1-3.57-5.57V656.57Z"
        transform="translate(-79.34 -172.91)" fill="#3f3d56" />
      <rect id="Rectangle_137" data-name="Rectangle 137" width="47.17" height="31.5"
        transform="translate(680.92 483.65)" fill="#3f3d56" />
      <rect id="Rectangle_138" data-name="Rectangle 138" width="47.17" height="31.5"
        transform="translate(680.92 483.65)" opacity="0.1" />
      <rect id="Rectangle_139" data-name="Rectangle 139" width="47.17" height="31.5"
        transform="translate(678.92 483.65)" fill="#3f3d56" />
      <path id="Path_306" data-name="Path 306" d="M298.09,483.65v4.97l-47.17,1.26v-6.23Z" opacity="0.1" />
      <path id="Path_307" data-name="Path 307"
        d="M460.69,485.27v168.2a4,4,0,0,1-3.85,3.95l-191.65,5.1h-.05a4,4,0,0,1-3.95-3.95V485.27a4,4,0,0,1,3.95-3.95h191.6a4,4,0,0,1,3.95,3.95Z"
        transform="translate(-79.34 -172.91)" fill="#65617d" />
      <path id="Path_308" data-name="Path 308"
        d="M265.19,481.32v181.2h-.05a4,4,0,0,1-3.95-3.95V485.27a4,4,0,0,1,3.95-3.95Z"
        transform="translate(-79.34 -172.91)" opacity="0.1" />
      <path id="Path_309" data-name="Path 309" d="M194.59,319.15h177.5V467.4l-177.5,4Z" fill="#39374d" />
      <path id="Path_310" data-name="Path 310" d="M726.09,483.65v6.41l-47.17-1.26v-5.15Z" opacity="0.1" />
      <path id="Path_311" data-name="Path 311"
        d="M867.69,485.27v173.3a4,4,0,0,1-4,3.95h0L672,657.42a4,4,0,0,1-3.85-3.95V485.27a4,4,0,0,1,3.95-3.95H863.7a4,4,0,0,1,3.99,3.95Z"
        transform="translate(-79.34 -172.91)" fill="#65617d" />
      <path id="Path_312" data-name="Path 312" d="M867.69,485.27v173.3a4,4,0,0,1-4,3.95h0V481.32h0a4,4,0,0,1,4,3.95Z"
        transform="translate(-79.34 -172.91)" opacity="0.1" />
      <path id="Path_313" data-name="Path 313" d="M775.59,319.15H598.09V467.4l177.5,4Z" fill="#39374d" />
      <path id="Path_314" data-name="Path 314"
        d="M663.19,485.27v168.2a4,4,0,0,1-3.85,3.95l-191.65,5.1h0a4,4,0,0,1-4-3.95V485.27a4,4,0,0,1,3.95-3.95h191.6A4,4,0,0,1,663.19,485.27Z"
        transform="translate(-79.34 -172.91)" fill="#65617d" />
      <path id="Path_315" data-name="Path 315" d="M397.09,319.15h177.5V467.4l-177.5,4Z" fill="#4267b2" />
      <path id="Path_316" data-name="Path 316"
        d="M863.09,533.65v13l-151.92,1.4-1.62.03-57.74.53-1.38.02-17.55.15h-.52l-106.98.99L349.77,551.4h-.15l-44.65.42-.48.01-198.4,1.82v-15l202.51-1.33h.48l40.99-.28h.19l283.08-1.87h.29l.17-.01h.47l4.79-.03h1.46l74.49-.5,4.4-.02.98-.01Z"
        opacity="0.1" />
      <circle id="Ellipse_111" data-name="Ellipse 111" cx="51.33" cy="51.33" r="51.33"
        transform="translate(435.93 246.82)" fill="#fbbebe" />
      <path id="Path_317" data-name="Path 317"
        d="M617.94,550.07s-99.5,12-90,0c3.44-4.34,4.39-17.2,4.2-31.85-.06-4.45-.22-9.06-.45-13.65-1.1-22-3.75-43.5-3.75-43.5s87-41,77-8.5c-4,13.13-2.69,31.57.35,48.88.89,5.05,1.92,10,3,14.7a344.66,344.66,0,0,0,9.65,33.92Z"
        transform="translate(-79.34 -172.91)" fill="#fbbebe" />
      <path id="Path_318" data-name="Path 318"
        d="M585.47,546c11.51-2.13,23.7-6,34.53-1.54,2.85,1.17,5.47,2.88,8.39,3.86s6.12,1.22,9.16,1.91c10.68,2.42,19.34,10.55,24.9,20s8.44,20.14,11.26,30.72l6.9,25.83c6,22.45,12,45.09,13.39,68.3a2437.506,2437.506,0,0,1-250.84,1.43c5.44-10.34,11-21.31,10.54-33s-7.19-23.22-4.76-34.74c1.55-7.34,6.57-13.39,9.64-20.22,8.75-19.52,1.94-45.79,17.32-60.65,6.92-6.68,17-9.21,26.63-8.89,12.28.41,24.85,4.24,37,6.11C555.09,547.48,569.79,548.88,585.47,546Z"
        transform="translate(-79.34 -172.91)" fill="#ff6584" />
      <path id="Path_319" data-name="Path 319"
        d="M716.37,657.17l-.1,1.43v.1l-.17,2.3-1.33,18.51-1.61,22.3-.46,6.28-1,13.44v.17l-107,1-175.59,1.9v.84h-.14v-1.12l.45-14.36.86-28.06.74-23.79.07-2.37a10.53,10.53,0,0,1,11.42-10.17c4.72.4,10.85.89,18.18,1.41l3,.22c42.33,2.94,120.56,6.74,199.5,2,1.66-.09,3.33-.19,5-.31,12.24-.77,24.47-1.76,36.58-3a10.53,10.53,0,0,1,11.6,11.23Z"
        transform="translate(-79.34 -172.91)" opacity="0.1" />
      <path id="Path_320" data-name="Path 320"
        d="M429.08,725.44v-.84l175.62-1.91,107-1h.3v-.17l1-13.44.43-6,1.64-22.61,1.29-17.9v-.44a10.617,10.617,0,0,0-.11-2.47.3.3,0,0,0,0-.1,10.391,10.391,0,0,0-2-4.64,10.54,10.54,0,0,0-9.42-4c-12.11,1.24-24.34,2.23-36.58,3-1.67.12-3.34.22-5,.31-78.94,4.69-157.17.89-199.5-2l-3-.22c-7.33-.52-13.46-1-18.18-1.41a10.54,10.54,0,0,0-11.24,8.53,11,11,0,0,0-.18,1.64l-.68,22.16L429.54,710l-.44,14.36v1.12Z"
        transform="translate(-79.34 -172.91)" fill="#3f3d56" />
      <path id="Path_321" data-name="Path 321"
        d="M716.67,664.18l-1.23,15.33-1.83,22.85-.46,5.72-1,12.81-.06.64v.17h0l-.15,1.48.11-1.48h-.29l-107,1-175.65,1.9v-.28l.49-14.36,1-28.06.64-18.65A6.36,6.36,0,0,1,434.3,658a6.25,6.25,0,0,1,3.78-.9c2.1.17,4.68.37,7.69.59,4.89.36,10.92.78,17.94,1.22,13,.82,29.31,1.7,48,2.42,52,2,122.2,2.67,188.88-3.17,3-.26,6.1-.55,9.13-.84a6.26,6.26,0,0,1,3.48.66,5.159,5.159,0,0,1,.86.54,6.14,6.14,0,0,1,2,2.46,3.564,3.564,0,0,1,.25.61A6.279,6.279,0,0,1,716.67,664.18Z"
        transform="translate(-79.34 -172.91)" opacity="0.1" />
      <path id="Path_322" data-name="Path 322"
        d="M377.44,677.87v3.19a6.13,6.13,0,0,1-3.5,5.54l-40.1.77a6.12,6.12,0,0,1-3.57-5.57v-3Z"
        transform="translate(-79.34 -172.91)" opacity="0.1" />
      <path id="Path_323" data-name="Path 323" d="M298.59,515.57l-52.25,1V507.9l52.25-1Z" fill="#3f3d56" />
      <path id="Path_324" data-name="Path 324" d="M298.59,515.57l-52.25,1V507.9l52.25-1Z" opacity="0.1" />
      <path id="Path_325" data-name="Path 325" d="M300.59,515.57l-52.25,1V507.9l52.25-1Z" fill="#3f3d56" />
      <path id="Path_326" data-name="Path 326"
        d="M758.56,679.87v3.19a6.13,6.13,0,0,0,3.5,5.54l40.1.77a6.12,6.12,0,0,0,3.57-5.57v-3Z"
        transform="translate(-79.34 -172.91)" opacity="0.1" />
      <path id="Path_327" data-name="Path 327" d="M678.72,517.57l52.25,1V509.9l-52.25-1Z" opacity="0.1" />
      <path id="Path_328" data-name="Path 328" d="M676.72,517.57l52.25,1V509.9l-52.25-1Z" fill="#3f3d56" />
      <path id="Path_329" data-name="Path 329"
        d="M534.13,486.79c.08,7-3.16,13.6-5.91,20.07a163.491,163.491,0,0,0-12.66,74.71c.73,11,2.58,22,.73,32.9s-8.43,21.77-19,24.9c17.53,10.45,41.26,9.35,57.76-2.66,8.79-6.4,15.34-15.33,21.75-24.11a97.86,97.86,0,0,1-13.31,44.75A103.43,103.43,0,0,0,637,616.53c4.31-5.81,8.06-12.19,9.72-19.23,3.09-13-1.22-26.51-4.51-39.5a266.055,266.055,0,0,1-6.17-33c-.43-3.56-.78-7.22.1-10.7,1-4.07,3.67-7.51,5.64-11.22,5.6-10.54,5.73-23.3,2.86-34.88s-8.49-22.26-14.06-32.81c-4.46-8.46-9.3-17.31-17.46-22.28-5.1-3.1-11-4.39-16.88-5.64l-25.37-5.43c-5.55-1.19-11.26-2.38-16.87-1.51-9.47,1.48-16.14,8.32-22,15.34-4.59,5.46-15.81,15.71-16.6,22.86-.72,6.59,5.1,17.63,6.09,24.58,1.3,9,2.22,6,7.3,11.52C532,478.05,534.07,482,534.13,486.79Z"
        transform="translate(-79.34 -172.91)" fill="#3f3d56" />
    </g>
    <g id="docusaurus_keytar" transform="translate(670.271 615.768)" />
    <g id="React-icon" transform="translate(906.3 541.56)">
      <path id="Path_330" data-name="Path 330"
        d="M263.668,117.179c0-5.827-7.3-11.35-18.487-14.775,2.582-11.4,1.434-20.477-3.622-23.382a7.861,7.861,0,0,0-4.016-1v4a4.152,4.152,0,0,1,2.044.466c2.439,1.4,3.5,6.724,2.672,13.574-.2,1.685-.52,3.461-.914,5.272a86.9,86.9,0,0,0-11.386-1.954,87.469,87.469,0,0,0-7.459-8.965c5.845-5.433,11.332-8.41,15.062-8.41V78h0c-4.931,0-11.386,3.514-17.913,9.611-6.527-6.061-12.982-9.539-17.913-9.539v4c3.712,0,9.216,2.959,15.062,8.356a84.687,84.687,0,0,0-7.405,8.947,83.732,83.732,0,0,0-11.4,1.972c-.412-1.793-.717-3.532-.932-5.2-.843-6.85.2-12.175,2.618-13.592a3.991,3.991,0,0,1,2.062-.466v-4h0a8,8,0,0,0-4.052,1c-5.039,2.9-6.168,11.96-3.568,23.328-11.153,3.443-18.415,8.947-18.415,14.757,0,5.828,7.3,11.35,18.487,14.775-2.582,11.4-1.434,20.477,3.622,23.382a7.882,7.882,0,0,0,4.034,1c4.931,0,11.386-3.514,17.913-9.611,6.527,6.061,12.982,9.539,17.913,9.539a8,8,0,0,0,4.052-1c5.039-2.9,6.168-11.96,3.568-23.328C256.406,128.511,263.668,122.988,263.668,117.179Zm-23.346-11.96c-.663,2.313-1.488,4.7-2.421,7.083-.735-1.434-1.506-2.869-2.349-4.3-.825-1.434-1.7-2.833-2.582-4.2C235.517,104.179,237.974,104.645,240.323,105.219Zm-8.212,19.1c-1.4,2.421-2.833,4.716-4.321,6.85-2.672.233-5.379.359-8.1.359-2.708,0-5.415-.126-8.069-.341q-2.232-3.2-4.339-6.814-2.044-3.523-3.73-7.136c1.112-2.4,2.367-4.805,3.712-7.154,1.4-2.421,2.833-4.716,4.321-6.85,2.672-.233,5.379-.359,8.1-.359,2.708,0,5.415.126,8.069.341q2.232,3.2,4.339,6.814,2.044,3.523,3.73,7.136C234.692,119.564,233.455,121.966,232.11,124.315Zm5.792-2.331c.968,2.4,1.793,4.805,2.474,7.136-2.349.574-4.823,1.058-7.387,1.434.879-1.381,1.757-2.8,2.582-4.25C236.4,124.871,237.167,123.419,237.9,121.984ZM219.72,141.116a73.921,73.921,0,0,1-4.985-5.738c1.614.072,3.263.126,4.931.126,1.685,0,3.353-.036,4.985-.126A69.993,69.993,0,0,1,219.72,141.116ZM206.38,130.555c-2.546-.377-5-.843-7.352-1.417.663-2.313,1.488-4.7,2.421-7.083.735,1.434,1.506,2.869,2.349,4.3S205.5,129.192,206.38,130.555ZM219.63,93.241a73.924,73.924,0,0,1,4.985,5.738c-1.614-.072-3.263-.126-4.931-.126-1.686,0-3.353.036-4.985.126A69.993,69.993,0,0,1,219.63,93.241ZM206.362,103.8c-.879,1.381-1.757,2.8-2.582,4.25-.825,1.434-1.6,2.869-2.331,4.3-.968-2.4-1.793-4.805-2.474-7.136C201.323,104.663,203.8,104.179,206.362,103.8Zm-16.227,22.449c-6.348-2.708-10.454-6.258-10.454-9.073s4.106-6.383,10.454-9.073c1.542-.663,3.228-1.255,4.967-1.811a86.122,86.122,0,0,0,4.034,10.92,84.9,84.9,0,0,0-3.981,10.866C193.38,127.525,191.694,126.915,190.134,126.252Zm9.647,25.623c-2.439-1.4-3.5-6.724-2.672-13.574.2-1.686.52-3.461.914-5.272a86.9,86.9,0,0,0,11.386,1.954,87.465,87.465,0,0,0,7.459,8.965c-5.845,5.433-11.332,8.41-15.062,8.41A4.279,4.279,0,0,1,199.781,151.875Zm42.532-13.663c.843,6.85-.2,12.175-2.618,13.592a3.99,3.99,0,0,1-2.062.466c-3.712,0-9.216-2.959-15.062-8.356a84.689,84.689,0,0,0,7.405-8.947,83.731,83.731,0,0,0,11.4-1.972A50.194,50.194,0,0,1,242.313,138.212Zm6.9-11.96c-1.542.663-3.228,1.255-4.967,1.811a86.12,86.12,0,0,0-4.034-10.92,84.9,84.9,0,0,0,3.981-10.866c1.775.556,3.461,1.165,5.039,1.829,6.348,2.708,10.454,6.258,10.454,9.073C259.67,119.994,255.564,123.562,249.216,126.252Z"
        fill="#61dafb" />
      <path id="Path_331" data-name="Path 331" d="M320.8,78.4Z" transform="translate(-119.082 -0.328)" fill="#61dafb" />
      <circle id="Ellipse_112" data-name="Ellipse 112" cx="8.194" cy="8.194" r="8.194"
        transform="translate(211.472 108.984)" fill="#61dafb" />
      <path id="Path_332" data-name="Path 332" d="M520.5,78.1Z" transform="translate(-282.975 -0.082)" fill="#61dafb" />
    </g>
  </g>
  <g id="group-1" transform="matrix(0.671628, 0, 0, 0.671628, 212.187976, 329.230138)" style="">
    <path id="Path_40" data-name="Path 40" d="M99,52h91.791V89.153H99Z" transform="translate(5.904 -14.001)" fill="#fff"
      fill-rule="evenodd" />
    <path id="Path_41" data-name="Path 41"
      d="M24.855,163.927A21.828,21.828,0,0,1,5.947,153a21.829,21.829,0,0,0,18.908,32.782H46.71V163.927Z"
      transform="translate(-3 -4.634)" fill-rule="evenodd" style="fill: rgb(26, 32, 51);" />
    <path id="Path_42" data-name="Path 42"
      d="M121.861,61.1l76.514-4.782V45.39A21.854,21.854,0,0,0,176.52,23.535H78.173L75.441,18.8a3.154,3.154,0,0,0-5.464,0l-2.732,4.732L64.513,18.8a3.154,3.154,0,0,0-5.464,0l-2.732,4.732L53.586,18.8a3.154,3.154,0,0,0-5.464,0L45.39,23.535c-.024,0-.046,0-.071,0l-4.526-4.525a3.153,3.153,0,0,0-5.276,1.414l-1.5,5.577-5.674-1.521a3.154,3.154,0,0,0-3.863,3.864L26,34.023l-5.575,1.494a3.155,3.155,0,0,0-1.416,5.278l4.526,4.526c0,.023,0,.046,0,.07L18.8,48.122a3.154,3.154,0,0,0,0,5.464l4.732,2.732L18.8,59.05a3.154,3.154,0,0,0,0,5.464l4.732,2.732L18.8,69.977a3.154,3.154,0,0,0,0,5.464l4.732,2.732L18.8,80.9a3.154,3.154,0,0,0,0,5.464L23.535,89.1,18.8,91.832a3.154,3.154,0,0,0,0,5.464l4.732,2.732L18.8,102.76a3.154,3.154,0,0,0,0,5.464l4.732,2.732L18.8,113.687a3.154,3.154,0,0,0,0,5.464l4.732,2.732L18.8,124.615a3.154,3.154,0,0,0,0,5.464l4.732,2.732L18.8,135.542a3.154,3.154,0,0,0,0,5.464l4.732,2.732L18.8,146.469a3.154,3.154,0,0,0,0,5.464l4.732,2.732L18.8,157.4a3.154,3.154,0,0,0,0,5.464l4.732,2.732L18.8,168.324a3.154,3.154,0,0,0,0,5.464l4.732,2.732A21.854,21.854,0,0,0,45.39,198.375H176.52a21.854,21.854,0,0,0,21.855-21.855V89.1l-76.514-4.782a11.632,11.632,0,0,1,0-23.219"
      transform="translate(-1.681 -17.226)" fill-rule="evenodd" style="fill: rgb(26, 32, 51);" />
    <g transform="matrix(0.221855, 0, 0, 0.221855, -117.096201, -108.564195)" id="object-0" style="">
      <g transform="matrix(1, 0, 0, 1, -359.764562, 196.000003)">
        <rect x="990.572" y="320.482" width="786.3" height="786.3"
          style="fill: rgb(26, 32, 51); stroke: url(&quot;#gradient-7&quot;); stroke-width: 0px;" rx="180" ry="180" />
        <rect x="3338.69" y="1465.55" width="361.125" height="279.569"
          style="filter: url(&quot;#filter-3&quot;); fill: rgb(40, 160, 237); fill-opacity: 0.29; transform-origin: 3519.25px 1605.33px; stroke-width: 0px;"
          rx="84" ry="84" transform="matrix(0.766041, 0.642792, -0.642784, 0.766048, -2337.29952, -690.398097)" />
        <rect x="3338.69" y="1465.55" width="361.125" height="279.569"
          style="filter: url(&quot;#filter-2&quot;); fill: rgb(122, 83, 236); fill-opacity: 0.39; transform-origin: 3519.25px 1605.33px; stroke-width: 0px;"
          rx="84" ry="84" transform="matrix(0.766041, -0.642792, 0.642784, 0.766047, -1933.502078, -684.417641)" />
        <rect x="3338.69" y="1465.55" width="361.125" height="279.569"
          style="filter: url(&quot;#filter-1&quot;); fill: rgb(174, 78, 233); fill-opacity: 0.38; transform-origin: 3519.25px 1605.33px; stroke-width: 0px;"
          rx="84" ry="84" transform="matrix(0.766041, 0.642792, -0.642784, 0.766048, -1933.503356, -1099.469636)" />
        <rect x="3338.69" y="1465.55" width="361.125" height="279.569"
          style="fill: rgb(42, 219, 218); filter: url(&quot;#gaussian-blur-filter-0&quot;); fill-opacity: 0.29; transform-box: fill-box; transform-origin: 50% 50%; stroke-width: 0px;"
          rx="84" ry="84" transform="matrix(0.766041, -0.642792, 0.642784, 0.766047, -2337.474409, -1099.708622)" />
        <path
          d="M 1203.73 410.964 C 1204.62 410.955 1205.5 410.947 1206.42 410.938 C 1207.87 410.932 1207.87 410.932 1209.34 410.925 C 1210.88 410.913 1210.88 410.913 1212.44 410.9 C 1215.81 410.875 1219.2 410.859 1222.58 410.844 C 1223.73 410.839 1224.9 410.834 1226.09 410.828 C 1232.2 410.802 1238.31 410.782 1244.44 410.768 C 1249.49 410.754 1254.55 410.727 1259.61 410.686 C 1265.72 410.636 1271.84 410.612 1277.95 410.605 C 1280.27 410.598 1282.61 410.583 1284.93 410.559 C 1288.19 410.527 1291.45 410.527 1294.7 410.534 C 1296.15 410.51 1296.15 410.51 1297.61 410.485 C 1304.04 410.544 1308.28 411.995 1313.28 416.118 C 1315.35 418.469 1315.35 418.469 1316.71 420.743 C 1317.2 421.498 1317.67 422.254 1318.16 423.032 C 1321.23 428.731 1320.99 434.572 1319.28 440.68 C 1315.73 446.78 1311.16 451.989 1304.28 454.118 C 1301.31 454.385 1298.36 454.347 1295.38 454.31 C 1294.49 454.307 1293.61 454.304 1292.7 454.301 C 1290.77 454.295 1288.86 454.284 1286.93 454.27 C 1283.89 454.251 1280.85 454.248 1277.79 454.252 C 1269.15 454.262 1260.49 454.262 1251.85 454.197 C 1246.54 454.159 1241.24 454.159 1235.95 454.185 C 1233.94 454.187 1231.93 454.175 1229.91 454.148 C 1219.3 455.155 1207.97 461.08 1205.28 463.118 C 1204.17 464.338 1203.02 465.531 1201.85 466.68 C 1201.25 467.256 1200.68 467.832 1200.08 468.425 C 1198.3 470.096 1196.48 471.682 1194.64 473.262 C 1189.91 477.38 1185.5 481.788 1181.1 486.243 C 1180.31 487.028 1179.53 487.813 1178.72 488.622 C 1177.27 490.083 1175.83 491.545 1174.38 493.009 C 1172.89 494.507 1171.4 496.001 1169.91 497.493 C 1167.52 499.871 1165.17 502.257 1162.8 504.649 C 1160.5 506.971 1158.2 509.287 1155.91 511.604 C 1154.7 512.829 1153.47 514.056 1152.26 515.284 C 1150.51 517.063 1148.75 518.835 1146.98 520.606 C 1146.45 521.159 1145.91 521.712 1145.35 522.282 C 1144.02 523.599 1142.66 524.864 1141.28 526.118 C 1140.73 526.642 1139.73 527.182 1139.04 527.884 C 1137.54 529.321 1137.39 529.343 1135.44 530.884 C 1132.7 533.027 1133.49 532.262 1130.73 534.578 C 1130.01 535.189 1127.47 538.086 1127.28 541.118 C 1127.17 543.927 1127.11 546.712 1127.1 549.521 C 1127.09 550.403 1127.08 551.284 1127.06 552.192 C 1127.04 554.113 1127.03 556.034 1127.02 557.954 C 1126.99 560.993 1126.97 564.031 1126.95 567.069 C 1126.89 573.523 1126.84 579.977 1126.78 586.43 C 1126.72 593.897 1126.66 601.363 1126.59 608.829 C 1126.56 611.825 1126.54 614.82 1126.52 617.816 C 1126.5 619.653 1126.48 621.489 1126.47 623.326 C 1126.46 624.161 1126.46 624.996 1126.45 625.856 C 1126.37 634.912 1126.37 634.912 1123.16 638.493 C 1115.7 645.305 1111.84 648.518 1101.36 648.391 C 1095.02 647.828 1091.02 645.225 1086.85 640.555 C 1084 637.077 1083.16 634.212 1083.15 629.749 C 1083.14 628.856 1083.13 627.963 1083.13 627.043 C 1083.13 626.066 1083.13 625.089 1083.13 624.082 C 1083.12 623.051 1083.12 622.02 1083.11 620.957 C 1083.1 617.538 1083.09 614.119 1083.08 610.7 C 1083.08 608.324 1083.06 605.949 1083.06 603.573 C 1083.05 598.588 1083.04 593.602 1083.04 588.616 C 1083.03 582.235 1083.01 575.854 1082.98 569.473 C 1082.96 564.563 1082.95 559.653 1082.95 554.744 C 1082.95 552.392 1082.95 550.04 1082.94 547.688 C 1082.92 544.392 1082.92 541.097 1082.93 537.801 C 1082.92 536.834 1082.91 535.867 1082.9 534.87 C 1082.94 528.959 1083.67 524.46 1086.28 519.118 C 1087.67 517.536 1097.24 507.149 1099.28 504.118 C 1099.91 503.505 1101.04 502.391 1102.28 501.118 C 1104.8 498.519 1104.71 498.43 1107.28 496.118 C 1107.85 495.58 1109.16 494.392 1110.28 493.118 C 1111.91 491.408 1113.58 489.746 1115.28 488.118 C 1116.08 487.316 1116.87 486.514 1117.68 485.688 C 1118.47 484.881 1119.27 484.074 1120.1 483.243 C 1120.89 482.441 1121.68 481.639 1122.48 480.813 C 1124.52 478.85 1126.55 477.026 1128.7 475.203 C 1133.95 470.63 1138.8 465.689 1143.7 460.748 C 1145.4 459.026 1147.11 457.309 1148.81 455.592 C 1153.67 450.717 1158.51 445.835 1163.36 440.95 C 1166.33 437.949 1169.3 434.952 1172.29 431.959 C 1173.43 430.819 1174.55 429.678 1175.69 428.534 C 1177.25 426.945 1178.84 425.362 1180.41 423.78 C 1181.3 422.878 1182.2 421.975 1183.13 421.045 C 1185.28 419.118 1186.58 417.871 1187.28 417.118 C 1188.9 415.864 1188.9 415.864 1191.03 414.555 C 1192.08 413.904 1192.08 413.904 1193.15 413.239 C 1196.65 411.406 1199.81 410.992 1203.73 410.964 Z"
          style="fill: rgb(42, 219, 218); stroke: url(&quot;#gradient-2&quot;); stroke-width: 0px;" />
        <path
          d="M 1237.59 493.619 C 1238.28 493.608 1238.96 493.596 1239.67 493.584 C 1241.94 493.55 1244.21 493.54 1246.5 493.532 C 1248.08 493.52 1249.66 493.507 1251.26 493.494 C 1254.59 493.472 1257.9 493.462 1261.24 493.46 C 1265.49 493.455 1269.73 493.404 1273.98 493.341 C 1277.26 493.3 1280.54 493.291 1283.82 493.29 C 1285.37 493.285 1286.94 493.268 1288.51 493.239 C 1296.95 493.097 1303.43 493.171 1309.99 499.256 C 1310.54 499.855 1311.1 500.454 1311.66 501.071 C 1312.23 501.636 1312.79 502.202 1313.35 502.784 C 1316.51 506.164 1317.05 509.335 1317.24 513.884 C 1317 519.864 1316.71 525.712 1312.66 530.071 C 1307.13 536.037 1307.04 536.162 1301.88 537.817 C 1301.24 538.025 1300.31 538.087 1299.6 538.096 C 1292.54 538.182 1285.46 538.281 1278.38 538.388 C 1275.75 538.427 1273.1 538.462 1270.46 538.493 C 1266.67 538.538 1262.88 538.596 1259.09 538.657 C 1257.9 538.668 1256.73 538.68 1255.51 538.692 C 1254.4 538.712 1253.31 538.732 1252.17 538.752 C 1251.2 538.765 1250.24 538.855 1249.24 538.978 C 1244.76 539.532 1241.79 543.824 1240.66 545.071 C 1238.66 547.321 1231.24 554.498 1229.1 556.196 C 1226.45 558.28 1216.66 569.071 1213.62 570.994 C 1211.46 572.768 1210.76 573.709 1210.12 576.466 C 1209.94 579.53 1209.94 582.548 1210.01 585.618 C 1210 587.307 1210 587.307 1210 589.029 C 1209.99 592.627 1210.01 596.223 1210.05 599.821 C 1210.07 603.404 1210.09 606.987 1210.08 610.57 C 1210.07 612.797 1210.09 615.024 1210.11 617.251 C 1210.11 626.855 1207.51 634.235 1200.66 641.071 C 1195.1 645.252 1188.33 644.893 1181.66 644.071 C 1175.4 642.147 1171.38 638.37 1167.9 632.924 C 1165.38 627.106 1165.9 620.788 1166.02 614.563 C 1166.02 613.068 1166.03 611.573 1166.03 610.078 C 1166.04 606.96 1166.07 603.842 1166.1 600.724 C 1166.16 596.742 1166.18 592.76 1166.19 588.778 C 1166.2 584.956 1166.24 581.135 1166.27 577.313 C 1166.27 576.593 1166.27 575.872 1166.28 575.129 C 1166.29 573.074 1166.32 571.02 1166.35 568.965 C 1166.35 567.8 1166.37 566.634 1166.38 565.434 C 1166.69 561.703 1167.54 558.628 1168.66 555.071 C 1169.14 552.981 1174.08 549.434 1175.96 547.575 C 1176.61 546.934 1177.27 546.292 1177.93 545.632 C 1178.6 544.972 1179.29 544.313 1179.99 543.634 C 1180.64 542.978 1181.31 542.323 1182 541.647 C 1183.25 540.413 1184.5 539.181 1185.76 537.952 C 1189.98 533.801 1194.13 529.594 1198.32 525.398 C 1201.33 522.374 1204.34 519.353 1207.35 516.332 C 1208.94 514.739 1210.53 513.144 1212.11 511.549 C 1214.41 509.239 1216.71 506.932 1219.02 504.626 C 1219.73 503.913 1220.43 503.201 1221.15 502.466 C 1221.83 501.802 1222.49 501.138 1223.17 500.453 C 1224.05 499.58 1224.05 499.58 1224.93 498.689 C 1225.51 498.155 1226.08 497.621 1226.66 497.071 C 1227.26 496.516 1227.85 495.96 1228.45 495.388 C 1231.56 493.542 1234 493.661 1237.59 493.619 Z"
          style="fill: rgb(40, 220, 220); stroke: url(&quot;#gradient-1&quot;); stroke-width: 0px;" />
        <path
          d="M 1082.53 899.409 C 1082.56 898.514 1082.56 897.632 1082.56 896.711 C 1082.59 895.267 1082.59 895.267 1082.62 893.791 C 1082.6 892.253 1082.6 892.253 1082.64 890.694 C 1082.67 887.325 1082.68 883.934 1082.77 880.56 C 1082.77 879.403 1082.77 878.233 1082.79 877.05 C 1082.88 870.937 1082.97 864.825 1083.05 858.7 C 1083.15 853.646 1083.19 848.586 1083.22 843.523 C 1083.31 837.416 1083.4 831.301 1083.48 825.189 C 1083.49 822.869 1083.54 820.533 1083.55 818.204 C 1083.59 814.952 1083.61 811.686 1083.7 808.443 C 1083.71 806.989 1083.71 806.989 1083.72 805.526 C 1083.86 799.104 1085.38 794.888 1089.61 789.964 C 1092 787.927 1092 787.927 1094.29 786.61 C 1095.07 786.136 1095.8 785.673 1096.62 785.2 C 1102.36 782.231 1108.17 782.574 1114.28 784.39 C 1120.32 788.047 1125.45 792.709 1127.45 799.619 C 1127.67 802.596 1127.58 805.546 1127.47 808.526 C 1127.44 809.408 1127.44 810.29 1127.43 811.203 C 1127.38 813.133 1127.35 815.045 1127.3 816.973 C 1127.2 820.012 1127.17 823.048 1127.13 826.109 C 1126.99 834.75 1126.83 843.404 1126.62 852.048 C 1126.48 857.355 1126.39 862.655 1126.33 867.942 C 1126.29 869.953 1126.25 871.964 1126.18 873.984 C 1127.01 884.607 1132.7 896.037 1134.72 898.767 C 1135.9 899.894 1137.1 901.063 1138.22 902.253 C 1138.8 902.867 1139.36 903.45 1139.93 904.054 C 1141.58 905.871 1143.13 907.713 1144.66 909.582 C 1148.68 914.376 1153.04 918.866 1157.42 923.344 C 1158.19 924.149 1158.94 924.939 1159.77 925.771 C 1161.2 927.244 1162.63 928.707 1164.08 930.179 C 1165.54 931.701 1167 933.211 1168.48 934.735 C 1170.83 937.163 1173.15 939.552 1175.52 941.966 C 1177.76 944.306 1180.06 946.636 1182.34 948.976 C 1183.56 950.216 1184.75 951.456 1185.95 952.686 C 1187.71 954.466 1189.44 956.266 1191.18 958.056 C 1191.73 958.606 1192.26 959.146 1192.8 959.726 C 1194.13 961.076 1195.36 962.456 1196.59 963.856 C 1197.11 964.416 1197.61 965.426 1198.32 966.126 C 1199.73 967.656 1199.73 967.806 1201.26 969.776 C 1203.37 972.556 1202.61 971.756 1204.87 974.546 C 1205.46 975.276 1208.32 977.876 1211.35 978.116 C 1214.16 978.276 1216.94 978.386 1219.76 978.446 C 1220.63 978.476 1221.52 978.486 1222.41 978.526 C 1224.3 978.586 1226.26 978.626 1228.17 978.666 C 1231.22 978.746 1234.22 978.816 1237.29 978.896 C 1243.74 979.076 1250.19 979.236 1256.61 979.406 C 1264.12 979.596 1271.57 979.786 1279.04 979.986 C 1282.03 980.066 1285.04 980.146 1287.98 980.206 C 1289.83 980.266 1291.69 980.316 1293.52 980.356 C 1294.36 980.386 1295.19 980.396 1296.06 980.416 C 1305.11 980.656 1305.11 980.656 1308.64 983.936 C 1315.33 991.506 1318.46 995.436 1318.14 1005.9 C 1317.47 1012.23 1314.81 1016.18 1310.06 1020.27 C 1306.5 1023.05 1303.67 1023.85 1299.17 1023.78 C 1298.27 1023.78 1297.41 1023.77 1296.49 1023.75 C 1295.51 1023.74 1294.53 1023.72 1293.53 1023.7 C 1292.5 1023.69 1291.46 1023.68 1290.38 1023.67 C 1286.99 1023.62 1283.53 1023.56 1280.15 1023.51 C 1277.77 1023.48 1275.38 1023.46 1273.03 1023.41 C 1268.02 1023.33 1263.06 1023.26 1258.07 1023.18 C 1251.67 1023.07 1245.31 1022.98 1238.92 1022.9 C 1234.02 1022.83 1229.07 1022.75 1224.19 1022.67 C 1221.81 1022.63 1219.49 1022.59 1217.14 1022.56 C 1213.84 1022.52 1210.56 1022.46 1207.25 1022.4 C 1206.26 1022.39 1205.32 1022.39 1204.33 1022.38 C 1198.39 1022.23 1193.9 1021.43 1188.63 1018.72 C 1187.09 1017.3 1176.86 1007.55 1173.85 1005.46 C 1173.27 1004.82 1172.14 1003.67 1170.92 1002.41 C 1168.36 999.846 1168.27 999.936 1165.98 997.326 C 1165.46 996.746 1164.31 995.416 1163.04 994.276 C 1161.38 992.616 1159.76 990.926 1158.15 989.186 C 1157.36 988.376 1156.57 987.566 1155.73 986.746 C 1154.96 985.946 1154.18 985.136 1153.36 984.286 C 1152.57 983.486 1151.79 982.676 1150.97 981.856 C 1149.03 979.786 1147.23 977.726 1145.47 975.546 C 1140.97 970.216 1136.14 965.276 1131.29 960.296 C 1129.59 958.576 1127.9 956.826 1126.21 955.096 C 1121.42 950.146 1116.63 945.236 1111.79 940.291 C 1108.87 937.267 1105.91 934.249 1102.97 931.206 C 1101.88 930.05 1100.75 928.906 1099.64 927.749 C 1098.07 926.159 1096.48 924.538 1094.96 922.95 C 1094.07 922.036 1093.19 921.128 1092.27 920.18 C 1090.38 917.991 1089.14 916.672 1088.42 915.959 C 1087.16 914.314 1087.16 914.314 1085.93 912.165 C 1085.28 911.106 1085.28 911.106 1084.65 910.021 C 1082.86 906.49 1082.51 903.323 1082.53 899.409 Z"
          style="stroke: url(&quot;#gradient-3&quot;); fill: rgb(36, 163, 238); transform-origin: 1196.73px 902.053px; stroke-width: 0px;" />
        <path
          d="M 1165.78 866.995 C 1165.79 866.3 1165.77 865.618 1165.8 864.909 C 1165.81 862.646 1165.82 860.367 1165.86 858.084 C 1165.87 856.501 1165.89 854.917 1165.87 853.317 C 1165.93 849.985 1165.95 846.678 1166.05 843.344 C 1166.12 839.094 1166.14 834.855 1166.14 830.6 C 1166.16 827.318 1166.2 824.044 1166.27 820.761 C 1166.28 819.209 1166.3 817.639 1166.28 816.075 C 1166.31 807.627 1166.48 801.155 1172.69 794.703 C 1173.3 794.158 1173.9 793.609 1174.55 793.06 C 1175.12 792.501 1175.68 791.95 1176.27 791.401 C 1179.7 788.299 1182.89 787.817 1187.44 787.708 C 1193.43 788.054 1199.27 788.443 1203.56 792.57 C 1209.39 798.201 1209.53 798.29 1211.07 803.479 C 1211.3 804.123 1211.35 805.057 1211.32 805.764 C 1211.29 812.824 1211.28 819.909 1211.23 826.987 C 1211.24 829.617 1211.24 832.266 1211.22 834.91 C 1211.21 838.698 1211.18 842.487 1211.19 846.277 C 1211.19 847.469 1211.18 848.643 1211.16 849.859 C 1211.16 850.97 1211.16 852.056 1211.17 853.202 C 1211.17 854.171 1211.22 855.133 1211.35 856.134 C 1211.8 860.62 1216.06 863.67 1217.29 864.817 C 1219.5 866.856 1226.54 874.406 1228.21 876.567 C 1230.24 879.254 1240.86 889.237 1242.71 892.309 C 1244.46 894.5 1245.4 895.217 1248.14 895.9 C 1251.21 896.136 1254.22 896.185 1257.29 896.17 C 1258.98 896.209 1258.98 896.209 1260.71 896.247 C 1264.28 896.316 1267.89 896.36 1271.5 896.381 C 1275.07 896.425 1278.65 896.467 1282.24 896.536 C 1284.47 896.59 1286.69 896.603 1288.91 896.62 C 1298.53 896.792 1305.86 899.521 1312.57 906.488 C 1316.66 912.124 1316.18 918.881 1315.25 925.543 C 1313.2 931.764 1309.33 935.716 1303.85 939.105 C 1297.99 941.516 1291.69 940.886 1285.48 940.666 C 1283.98 940.639 1282.45 940.598 1280.99 940.575 C 1277.86 940.509 1274.75 940.423 1271.62 940.342 C 1267.65 940.213 1263.67 940.121 1259.69 940.042 C 1255.86 939.968 1252.02 939.859 1248.23 939.763 C 1247.51 939.745 1246.78 939.736 1246.04 939.717 C 1244 939.668 1241.94 939.603 1239.86 939.539 C 1238.72 939.515 1237.55 939.476 1236.35 939.448 C 1232.62 939.067 1229.57 938.167 1226.03 936.985 C 1223.94 936.466 1220.49 931.464 1218.64 929.555 C 1218.04 928.896 1217.41 928.227 1216.74 927.547 C 1216.11 926.866 1215.45 926.168 1214.78 925.455 C 1214.14 924.794 1213.49 924.111 1212.83 923.412 C 1211.63 922.138 1210.41 920.871 1209.18 919.583 C 1205.1 915.294 1200.98 911.072 1196.88 906.807 C 1193.91 903.747 1190.93 900.686 1187.97 897.625 C 1186.4 896.009 1184.84 894.385 1183.28 892.783 C 1180.99 890.441 1178.73 888.097 1176.47 885.753 C 1175.78 885.033 1175.08 884.316 1174.32 883.586 C 1173.7 882.895 1173.04 882.218 1172.37 881.532 C 1171.51 880.631 1171.51 880.631 1170.63 879.741 C 1170.1 879.145 1169.59 878.569 1169.05 877.983 C 1168.5 877.375 1167.95 876.77 1167.4 876.163 C 1165.6 873.02 1165.77 870.578 1165.78 866.995 Z"
          style="stroke: url(&quot;#gradient-4&quot;); fill: rgb(40, 160, 237); transform-origin: 1236.59px 941.506px; stroke-width: 0px;" />
        <path
          d="M 1562.59 1020.84 C 1561.68 1020.83 1560.81 1020.84 1559.88 1020.85 C 1558.43 1020.86 1558.43 1020.86 1556.95 1020.84 C 1555.43 1020.89 1555.43 1020.89 1553.87 1020.88 C 1550.47 1020.9 1547.12 1020.96 1543.72 1020.93 C 1542.58 1020.94 1541.41 1020.97 1540.21 1020.97 C 1534.12 1020.98 1527.99 1021 1521.88 1021.02 C 1516.83 1021.01 1511.76 1021.06 1506.69 1021.12 C 1500.6 1021.14 1494.47 1021.15 1488.37 1021.18 C 1486.03 1021.21 1483.7 1021.2 1481.38 1021.24 C 1478.14 1021.26 1474.87 1021.28 1471.63 1021.26 C 1470.16 1021.27 1470.16 1021.27 1468.68 1021.28 C 1462.28 1021.25 1458.04 1019.81 1453.05 1015.66 C 1450.97 1013.32 1450.97 1013.32 1449.59 1011.04 C 1449.12 1010.27 1448.65 1009.55 1448.14 1008.75 C 1445.08 1003.05 1445.31 997.225 1447.05 991.094 C 1450.57 984.991 1455.16 979.77 1462.04 977.65 C 1464.99 977.378 1467.94 977.417 1470.92 977.475 C 1471.83 977.489 1472.67 977.474 1473.61 977.478 C 1475.55 977.484 1477.44 977.491 1479.39 977.497 C 1482.41 977.544 1485.44 977.521 1488.52 977.508 C 1497.15 977.507 1505.82 977.506 1514.46 977.565 C 1519.77 977.612 1525.07 977.61 1530.37 977.577 C 1532.38 977.592 1534.38 977.587 1536.4 977.622 C 1547.01 976.607 1558.33 970.718 1561.02 968.661 C 1562.15 967.451 1563.27 966.231 1564.45 965.091 C 1565.06 964.5 1565.64 963.94 1566.21 963.36 C 1568.01 961.678 1569.84 960.086 1571.66 958.524 C 1576.41 954.42 1580.81 949.983 1585.2 945.526 C 1586.01 944.741 1586.8 943.977 1587.58 943.134 C 1589.04 941.688 1590.5 940.222 1591.94 938.747 C 1593.43 937.266 1594.91 935.777 1596.41 934.269 C 1598.81 931.878 1601.13 929.517 1603.51 927.107 C 1605.79 924.827 1608.11 922.484 1610.41 920.164 C 1611.62 918.924 1612.85 917.713 1614.06 916.49 C 1615.8 914.704 1617.56 912.937 1619.33 911.171 C 1619.84 910.61 1620.41 910.068 1620.97 909.518 C 1622.3 908.164 1623.64 906.914 1625.01 905.661 C 1625.6 905.128 1626.58 904.607 1627.28 903.887 C 1628.78 902.449 1628.92 902.449 1630.86 900.886 C 1633.61 898.725 1632.83 899.499 1635.57 897.191 C 1636.29 896.587 1638.86 893.682 1639.05 890.652 C 1639.13 887.835 1639.18 885.054 1639.21 882.239 C 1639.23 881.365 1639.22 880.478 1639.24 879.581 C 1639.27 877.696 1639.3 875.735 1639.31 873.821 C 1639.32 870.774 1639.33 867.767 1639.37 864.701 C 1639.41 858.249 1639.47 851.798 1639.55 845.372 C 1639.58 837.862 1639.64 830.411 1639.71 822.937 C 1639.74 819.946 1639.79 816.934 1639.8 813.994 C 1639.8 812.144 1639.81 810.287 1639.84 808.45 C 1639.85 807.612 1639.86 806.782 1639.86 805.909 C 1639.95 796.864 1639.95 796.864 1643.16 793.274 C 1650.61 786.454 1654.47 783.253 1664.95 783.39 C 1671.29 783.951 1675.29 786.541 1679.45 791.218 C 1682.29 794.729 1683.13 797.545 1683.14 802.044 C 1683.16 802.943 1683.16 803.809 1683.17 804.725 C 1683.19 805.708 1683.19 806.687 1683.19 807.688 C 1683.19 808.716 1683.21 809.756 1683.22 810.836 C 1683.2 814.228 1683.19 817.692 1683.21 821.069 C 1683.24 823.448 1683.26 825.836 1683.26 828.189 C 1683.25 833.204 1683.26 838.157 1683.28 843.149 C 1683.27 849.554 1683.3 855.912 1683.33 862.3 C 1683.34 867.204 1683.35 872.15 1683.37 877.038 C 1683.36 879.416 1683.34 881.739 1683.36 884.088 C 1683.38 887.383 1683.4 890.666 1683.4 893.973 C 1683.39 894.968 1683.41 895.906 1683.43 896.898 C 1683.38 902.835 1682.65 907.342 1680.02 912.659 C 1678.63 914.222 1669.06 924.622 1667.03 927.667 C 1666.39 928.26 1665.28 929.404 1664.03 930.651 C 1661.52 933.254 1661.6 933.344 1659.02 935.679 C 1658.45 936.212 1657.16 937.378 1656.01 938.669 C 1654.4 940.357 1652.75 942.006 1651.03 943.646 C 1650.24 944.45 1649.42 945.255 1648.62 946.109 C 1647.86 946.892 1647.05 947.696 1646.2 948.521 C 1645.43 949.335 1644.65 950.119 1643.84 950.953 C 1641.78 952.939 1639.76 954.765 1637.59 956.563 C 1632.37 961.155 1627.5 966.08 1622.59 971.017 C 1620.89 972.747 1619.18 974.457 1617.49 976.177 C 1612.65 981.062 1607.81 985.927 1602.93 990.853 C 1599.98 993.835 1597.02 996.846 1594.03 999.85 C 1592.88 1000.95 1591.77 1002.1 1590.61 1003.23 C 1589.07 1004.84 1587.44 1006.45 1585.91 1007.99 C 1584.99 1008.9 1584.13 1009.79 1583.18 1010.74 C 1581.02 1012.67 1579.73 1013.93 1579.05 1014.65 C 1577.39 1015.94 1577.39 1015.94 1575.28 1017.21 C 1574.23 1017.88 1574.23 1017.88 1573.15 1018.53 C 1569.66 1020.39 1566.48 1020.79 1562.59 1020.84 Z"
          style="stroke: url(&quot;#gradient-5&quot;); fill: rgb(122, 83, 236); transform-origin: 1568px 902.456px; stroke-width: 0px;" />
        <path
          d="M 1526.72 938.189 C 1526.02 938.194 1525.35 938.227 1524.65 938.206 C 1522.38 938.234 1520.1 938.265 1517.81 938.264 C 1516.23 938.283 1514.65 938.291 1513.05 938.339 C 1509.72 938.336 1506.41 938.374 1503.09 938.332 C 1498.82 938.337 1494.59 938.391 1490.34 938.468 C 1487.05 938.502 1483.78 938.522 1480.5 938.506 C 1478.93 938.526 1477.37 938.534 1475.8 938.581 C 1467.36 938.696 1460.89 938.639 1454.33 932.54 C 1453.78 931.943 1453.2 931.35 1452.65 930.708 C 1452.09 930.151 1451.53 929.599 1450.97 929.023 C 1447.81 925.646 1447.27 922.465 1447.07 917.921 C 1447.32 911.92 1447.6 906.076 1451.66 901.715 C 1457.18 895.789 1457.27 895.645 1462.43 894.013 C 1463.08 893.775 1464 893.707 1464.7 893.723 C 1471.77 893.63 1478.85 893.519 1485.93 893.445 C 1488.56 893.385 1491.2 893.344 1493.85 893.315 C 1497.65 893.257 1501.43 893.221 1505.22 893.146 C 1506.41 893.128 1507.59 893.115 1508.8 893.116 C 1509.92 893.095 1511 893.078 1512.14 893.05 C 1513.11 893.03 1514.07 892.96 1515.07 892.818 C 1519.54 892.287 1522.53 887.973 1523.64 886.723 C 1525.65 884.48 1533.08 877.308 1535.21 875.603 C 1537.86 873.524 1547.65 862.73 1550.69 860.827 C 1552.85 859.044 1553.57 858.089 1554.2 855.334 C 1554.37 852.261 1554.37 849.253 1554.31 846.186 C 1554.31 844.493 1554.31 844.493 1554.33 842.762 C 1554.33 839.191 1554.31 835.581 1554.27 831.971 C 1554.25 828.402 1554.21 824.821 1554.22 821.233 C 1554.25 819.002 1554.22 816.781 1554.2 814.561 C 1554.21 804.938 1556.8 797.559 1563.65 790.73 C 1569.21 786.543 1575.97 786.91 1582.66 787.717 C 1588.92 789.659 1592.93 793.461 1596.41 798.881 C 1598.92 804.698 1598.41 811.009 1598.29 817.224 C 1598.3 818.719 1598.28 820.249 1598.3 821.711 C 1598.25 824.845 1598.23 827.956 1598.21 831.085 C 1598.16 835.057 1598.13 839.041 1598.13 843.021 C 1598.11 846.849 1598.07 850.688 1598.05 854.479 C 1598.02 855.204 1598.05 855.93 1598.03 856.673 C 1598.02 858.715 1597.99 860.774 1597.97 862.857 C 1597.97 863.998 1597.95 865.164 1597.93 866.365 C 1597.61 870.104 1596.78 873.165 1595.66 876.728 C 1595.16 878.824 1590.22 882.364 1588.35 884.25 C 1587.71 884.859 1587.06 885.496 1586.38 886.183 C 1585.71 886.822 1585.01 887.495 1584.33 888.176 C 1583.69 888.826 1583.01 889.49 1582.31 890.163 C 1581.06 891.387 1579.81 892.626 1578.55 893.88 C 1574.34 898.03 1570.18 902.228 1565.98 906.399 C 1562.97 909.425 1559.97 912.453 1556.98 915.466 C 1555.38 917.065 1553.77 918.657 1552.2 920.245 C 1549.9 922.572 1547.59 924.874 1545.3 927.174 C 1544.57 927.876 1543.88 928.591 1543.16 929.361 C 1542.49 929.996 1541.82 930.663 1541.14 931.347 C 1540.26 932.223 1540.26 932.223 1539.38 933.12 C 1538.8 933.661 1538.24 934.178 1537.65 934.729 C 1537.05 935.291 1536.46 935.848 1535.87 936.412 C 1532.76 938.264 1530.3 938.141 1526.72 938.189 Z"
          style="stroke: url(&quot;#gradient-6&quot;); fill: rgb(124, 87, 238); transform-origin: 1608.51px 939.078px; stroke-width: 0px;" />
        <path
          d="M 1478.14 414.3 C 1483.21 417.625 1487.75 421.404 1491.88 425.85 C 1495.22 429.334 1498.33 432.791 1503.25 433.174 C 1508.63 433.182 1511.49 428.728 1515.39 425.424 C 1517.94 423.303 1520.5 421.206 1523.07 419.112 C 1524.01 418.32 1524.01 418.32 1524.99 417.513 C 1533.17 410.826 1541.03 410.711 1551.39 411.424 C 1557.13 412.584 1562.82 415.753 1567.39 419.424 C 1567.39 420.084 1572.96 424.293 1575 426.487 C 1578.9 430.644 1583.03 433.779 1586.9 437.213 C 1590.5 440.418 1592.21 443.005 1592.82 447.799 C 1592.13 453.582 1589.99 456.927 1585.75 460.862 C 1581.12 463.011 1577.42 463.4 1572.39 462.424 C 1565.6 459.467 1560.74 453.903 1555.66 448.705 C 1551.6 444.634 1548.71 442.243 1542.75 442.049 C 1539.48 442.107 1533.04 447.089 1532.39 448.424 C 1522.59 457.623 1513.58 464.938 1499.98 464.744 C 1490.34 463.885 1484.16 456.758 1477.49 450.362 C 1476.47 449.381 1475.43 448.401 1474.39 447.424 C 1473.64 446.705 1473.64 446.705 1472.87 445.971 C 1468.29 441.827 1464.92 441.338 1458.91 441.537 C 1452.57 443.131 1448.45 447.5 1443.89 451.98 C 1437.21 458.424 1437.21 458.424 1434.39 458.424 C 1432.49 429.45 1432.49 429.45 1436.45 423.092 C 1439.26 420.226 1447.12 415.287 1448 414.701 C 1457.24 409.433 1468.95 408.882 1478.14 414.3 Z"
          style="fill: rgb(173, 79, 235); stroke: rgb(80, 28, 97); stroke-width: 0px;" />
        <path
          d="M 1566.61 494.501 C 1567.77 494.522 1568.92 494.542 1570.11 494.564 C 1582.17 497.792 1592.73 510.452 1601.21 519.138 C 1602.71 520.659 1611.9 526.93 1613.61 527.501 C 1618.71 530.008 1622.67 527.903 1627.11 525.189 C 1631.69 521.826 1635 517.644 1638.48 513.196 C 1643.47 506.893 1647.55 502.137 1655.85 501.095 C 1664.22 500.871 1669.4 501.736 1675.61 507.501 C 1676.14 507.981 1676.66 508.46 1677.2 508.954 C 1681.67 513.654 1682.61 519.257 1682.99 525.501 C 1682.81 531.419 1680.02 535.869 1676.24 540.251 C 1670.65 545.043 1666.42 547.648 1659.07 547.599 C 1658.22 547.595 1657.38 547.592 1656.51 547.589 C 1655.63 547.581 1654.76 547.572 1653.86 547.564 C 1652.98 547.559 1652.09 547.555 1651.17 547.55 C 1648.99 547.538 1644.61 548.821 1644.61 549.501 C 1633.21 555.748 1627.46 561.949 1614.55 561.935 C 1604.97 560.88 1599.18 558.116 1592.42 551.251 C 1591.44 550.286 1591.44 550.286 1590.43 549.302 C 1589.12 548.02 1587.82 546.729 1586.53 545.429 C 1585.22 544.114 1583.9 542.814 1582.57 541.526 C 1581.93 540.904 1581.29 540.283 1580.62 539.642 C 1580.05 539.085 1579.47 538.529 1578.87 537.955 C 1577.61 536.501 1573.61 532.501 1570.61 530.376 C 1565.54 527.513 1560.25 527.443 1554.61 528.501 C 1551.02 530.261 1548.44 532.698 1545.61 535.501 C 1544.89 536.208 1544.89 536.208 1544.16 536.93 C 1542.07 538.985 1539.99 541.045 1537.95 543.149 C 1534.68 546.521 1526.32 554.017 1525.61 554.501 C 1518.4 560.541 1510.81 562.887 1501.56 562.153 C 1488.21 559.946 1480.11 550.536 1471.22 541.179 C 1466.04 535.756 1461.93 532.164 1454.66 530.11 C 1450.67 528.923 1446.03 528.45 1444.61 523.501 C 1443.68 517.198 1443.78 510.785 1447.61 505.501 C 1452.65 500.721 1457.2 500.072 1463.96 500.161 C 1471.06 501.071 1476.13 505.639 1480.87 510.685 C 1483.27 513.185 1485.87 515.404 1488.49 517.661 C 1491.61 520.363 1494.67 523.134 1497.73 525.9 C 1501.07 528.741 1503.29 528.671 1507.61 528.501 C 1511.09 528.27 1515.37 523.55 1516.8 522.189 C 1521.49 517.721 1526.41 513.838 1530.88 509.158 C 1534.5 505.427 1538.28 502.365 1542.61 499.501 C 1543.19 499.12 1543.76 498.738 1544.35 498.345 C 1551.36 493.993 1558.64 494.255 1566.61 494.501 Z"
          style="fill: rgb(174, 78, 233); stroke: rgb(80, 28, 97); stroke-width: 0px;" />
        <path
          d="M 1566.61 585.897 C 1567.77 585.918 1568.92 585.938 1570.11 585.96 C 1582.17 589.188 1592.73 601.848 1601.21 610.534 C 1602.71 612.055 1611.9 618.326 1613.61 618.897 C 1618.71 621.404 1622.67 619.299 1627.11 616.585 C 1631.69 613.222 1635 609.04 1638.48 604.592 C 1643.47 598.289 1647.55 593.533 1655.85 592.491 C 1664.22 592.267 1669.4 593.132 1675.61 598.897 C 1676.14 599.377 1676.66 599.856 1677.2 600.35 C 1681.67 605.05 1682.61 610.653 1682.99 616.897 C 1682.81 622.815 1680.02 627.265 1676.24 631.647 C 1670.65 636.439 1666.42 639.044 1659.07 638.995 C 1658.22 638.991 1657.38 638.988 1656.51 638.985 C 1655.63 638.977 1654.76 638.968 1653.86 638.96 C 1652.98 638.955 1652.09 638.951 1651.17 638.946 C 1648.99 638.934 1644.61 640.217 1644.61 640.897 C 1633.21 647.144 1627.46 653.345 1614.55 653.331 C 1604.97 652.276 1599.18 649.512 1592.42 642.647 C 1591.44 641.682 1591.44 641.682 1590.43 640.698 C 1589.12 639.416 1587.82 638.125 1586.53 636.825 C 1585.22 635.51 1583.9 634.21 1582.57 632.922 C 1581.93 632.3 1581.29 631.679 1580.62 631.038 C 1580.05 630.481 1579.47 629.925 1578.87 629.351 C 1577.61 627.897 1573.61 623.897 1570.61 621.772 C 1565.54 618.909 1560.25 618.839 1554.61 619.897 C 1551.02 621.657 1548.44 624.094 1545.61 626.897 C 1544.89 627.604 1544.89 627.604 1544.16 628.326 C 1542.07 630.381 1539.99 632.441 1537.95 634.545 C 1534.68 637.917 1526.33 645.413 1525.61 645.897 C 1518.4 651.937 1510.81 654.283 1501.56 653.549 C 1488.21 651.342 1480.11 641.932 1471.22 632.575 C 1466.04 627.152 1461.93 623.56 1454.66 621.506 C 1450.67 620.319 1446.04 619.846 1444.61 614.897 C 1443.68 608.594 1443.78 602.181 1447.61 596.897 C 1452.65 592.117 1457.2 591.468 1463.96 591.557 C 1471.06 592.467 1476.13 597.035 1480.87 602.081 C 1483.27 604.581 1485.87 606.8 1488.49 609.057 C 1491.61 611.759 1494.67 614.53 1497.73 617.296 C 1501.07 620.137 1503.29 620.067 1507.61 619.897 C 1511.09 619.666 1515.37 614.946 1516.8 613.585 C 1521.5 609.117 1526.41 605.234 1530.88 600.554 C 1534.5 596.823 1538.28 593.761 1542.61 590.897 C 1543.19 590.516 1543.76 590.134 1544.35 589.741 C 1551.36 585.389 1558.64 585.651 1566.61 585.897 Z"
          style="fill: rgb(174, 78, 233); stroke: rgb(80, 28, 97); stroke-width: 0px;" />
        <path
          d="M 1394.15 413.062 C 1396.72 415.052 1398.87 417.081 1401.02 419.523 C 1401.5 420.05 1401.98 420.577 1402.47 421.121 C 1406.34 426.469 1406.42 434.176 1406.02 440.523 C 1404.25 444.728 1402.09 448.147 1399.02 451.523 C 1396.57 453.877 1390.92 458.242 1387.02 459.523 C 1379.92 460.678 1373.04 459.489 1367.02 455.523 C 1362.03 450.946 1358.55 446.437 1357.32 439.683 C 1357.11 432.68 1357.43 426.075 1362.02 420.523 C 1370.41 411.77 1382.46 407.32 1394.15 413.062 Z"
          style="fill: rgb(151, 98, 231); stroke: rgb(46, 25, 87); stroke-width: 0px;" />
        <path
          d="M 1395.78 497.374 C 1398.35 499.364 1400.5 501.393 1402.65 503.835 C 1403.13 504.362 1403.61 504.889 1404.1 505.433 C 1407.97 510.781 1408.05 518.488 1407.65 524.835 C 1405.88 529.04 1403.72 532.459 1400.65 535.835 C 1398.2 538.189 1392.55 542.554 1388.65 543.835 C 1381.55 544.99 1374.67 543.801 1368.65 539.835 C 1363.66 535.258 1360.18 530.749 1358.95 523.995 C 1358.74 516.992 1359.06 510.387 1363.65 504.835 C 1372.04 496.082 1384.09 491.632 1395.78 497.374 Z"
          style="fill: rgb(151, 98, 231); stroke: rgb(46, 25, 87); stroke-width: 0px;" />
        <path
          d="M 1395.78 588.791 C 1398.35 590.781 1400.5 592.81 1402.65 595.252 C 1403.13 595.779 1403.61 596.306 1404.1 596.85 C 1407.97 602.198 1408.05 609.905 1407.65 616.252 C 1405.88 620.457 1403.72 623.876 1400.65 627.252 C 1398.2 629.606 1392.55 633.971 1388.65 635.252 C 1381.55 636.407 1374.67 635.218 1368.65 631.252 C 1363.66 626.675 1360.18 622.166 1358.95 615.412 C 1358.74 608.409 1359.06 601.804 1363.65 596.252 C 1372.04 587.499 1384.09 583.049 1395.78 588.791 Z"
          style="fill: rgb(151, 98, 231); stroke: rgb(46, 25, 87); stroke-width: 0px;" />
        <path
          d="M 1337.43 637.893 C 1340 639.883 1342.15 641.912 1344.3 644.354 C 1344.78 644.881 1345.26 645.408 1345.75 645.952 C 1349.62 651.3 1349.7 659.007 1349.3 665.354 C 1347.53 669.559 1345.37 672.978 1342.3 676.354 C 1339.85 678.708 1334.2 683.073 1330.3 684.354 C 1323.2 685.509 1316.32 684.32 1310.3 680.354 C 1305.31 675.777 1301.83 671.268 1300.6 664.514 C 1300.39 657.511 1300.71 650.906 1305.3 645.354 C 1313.69 636.601 1325.74 632.151 1337.43 637.893 Z"
          style="fill: rgb(52, 163, 234); stroke: rgb(14, 50, 165); stroke-width: 0px;" />
        <path
          d="M 1283.94 691.352 C 1286.51 693.342 1288.66 695.371 1290.81 697.813 C 1291.29 698.34 1291.77 698.867 1292.26 699.411 C 1296.13 704.759 1296.21 712.466 1295.81 718.813 C 1294.04 723.018 1291.88 726.437 1288.81 729.813 C 1286.36 732.167 1280.71 736.532 1276.81 737.813 C 1269.71 738.968 1262.83 737.779 1256.81 733.813 C 1251.82 729.236 1248.34 724.727 1247.11 717.973 C 1246.9 710.97 1247.22 704.365 1251.81 698.813 C 1260.2 690.06 1272.25 685.61 1283.94 691.352 Z"
          style="fill: rgb(52, 163, 234); stroke: rgb(14, 50, 165); stroke-width: 0px;" />
        <path
          d="M 1204.45 693.19 C 1207.02 695.18 1209.17 697.209 1211.32 699.651 C 1211.8 700.178 1212.28 700.705 1212.77 701.249 C 1216.64 706.597 1216.72 714.304 1216.32 720.651 C 1214.55 724.856 1212.39 728.275 1209.32 731.651 C 1206.87 734.005 1201.22 738.37 1197.32 739.651 C 1190.22 740.806 1183.34 739.617 1177.32 735.651 C 1172.33 731.074 1168.85 726.565 1167.62 719.811 C 1167.41 712.808 1167.73 706.203 1172.32 700.651 C 1180.71 691.898 1192.76 687.448 1204.45 693.19 Z"
          style="fill: rgb(40, 220, 220); stroke: rgb(12, 121, 121); stroke-width: 0px;" />
        <path
          d="M 1119.4 691.352 C 1121.97 693.342 1124.12 695.371 1126.27 697.813 C 1126.75 698.34 1127.23 698.867 1127.72 699.411 C 1131.59 704.759 1131.67 712.466 1131.27 718.813 C 1129.5 723.018 1127.34 726.437 1124.27 729.813 C 1121.82 732.167 1116.17 736.532 1112.27 737.813 C 1105.17 738.968 1098.29 737.779 1092.27 733.813 C 1087.28 729.236 1083.8 724.727 1082.57 717.973 C 1082.36 710.97 1082.68 704.365 1087.27 698.813 C 1095.66 690.06 1107.71 685.61 1119.4 691.352 Z"
          style="fill: rgb(40, 220, 220); stroke: rgb(12, 121, 121); stroke-width: 0px;" />
        <path
          d="M 1673.16 691.352 C 1675.73 693.342 1677.88 695.371 1680.03 697.813 C 1680.51 698.34 1680.99 698.867 1681.48 699.411 C 1685.35 704.759 1685.43 712.466 1685.03 718.813 C 1683.26 723.018 1681.1 726.437 1678.03 729.813 C 1675.58 732.167 1669.93 736.532 1666.03 737.813 C 1658.93 738.968 1652.05 737.779 1646.03 733.813 C 1641.04 729.236 1637.56 724.727 1636.33 717.973 C 1636.12 710.97 1636.44 704.365 1641.03 698.813 C 1649.42 690.06 1661.47 685.61 1673.16 691.352 Z"
          style="fill: rgb(170, 74, 235); stroke: rgb(68, 31, 93); stroke-width: 0px;" />
        <path
          d="M 1591.62 691.352 C 1594.19 693.342 1596.34 695.371 1598.49 697.813 C 1598.97 698.34 1599.45 698.867 1599.94 699.411 C 1603.81 704.759 1603.89 712.466 1603.49 718.813 C 1601.72 723.018 1599.56 726.437 1596.49 729.813 C 1594.04 732.167 1588.39 736.532 1584.49 737.813 C 1577.39 738.968 1570.51 737.779 1564.49 733.813 C 1559.5 729.236 1556.02 724.727 1554.79 717.973 C 1554.58 710.97 1554.9 704.365 1559.49 698.813 C 1567.88 690.06 1579.93 685.61 1591.62 691.352 Z"
          style="fill: rgb(200, 87, 219); stroke: rgb(132, 57, 154); stroke-width: 0px;" />
        <path
          d="M 1395.01 801.176 C 1397.58 803.166 1399.73 805.195 1401.88 807.637 C 1402.36 808.164 1402.84 808.691 1403.33 809.235 C 1407.2 814.583 1407.28 822.29 1406.88 828.637 C 1405.11 832.842 1402.95 836.261 1399.88 839.637 C 1397.43 841.991 1391.78 846.356 1387.88 847.637 C 1380.78 848.792 1373.9 847.603 1367.88 843.637 C 1362.89 839.06 1359.41 834.551 1358.18 827.797 C 1357.97 820.794 1358.29 814.189 1362.88 808.637 C 1371.27 799.884 1383.32 795.434 1395.01 801.176 Z"
          style="fill: rgb(62, 132, 235); stroke: rgb(24, 43, 94); stroke-width: 0px;" />
        <path
          d="M 1396.64 885.488 C 1399.21 887.478 1401.36 889.507 1403.51 891.949 C 1403.99 892.476 1404.47 893.003 1404.96 893.547 C 1408.83 898.895 1408.91 906.602 1408.51 912.949 C 1406.74 917.154 1404.58 920.573 1401.51 923.949 C 1399.06 926.303 1393.41 930.668 1389.51 931.949 C 1382.41 933.104 1375.53 931.915 1369.51 927.949 C 1364.52 923.372 1361.04 918.863 1359.81 912.109 C 1359.6 905.106 1359.92 898.501 1364.51 892.949 C 1372.9 884.196 1384.95 879.746 1396.64 885.488 Z"
          style="fill: rgb(62, 132, 235); stroke: rgb(24, 43, 94); stroke-width: 0px;" />
        <path
          d="M 1396.64 976.905 C 1399.21 978.895 1401.36 980.924 1403.51 983.366 C 1403.99 983.893 1404.47 984.42 1404.96 984.964 C 1408.83 990.312 1408.91 998.019 1408.51 1004.37 C 1406.74 1008.57 1404.58 1011.99 1401.51 1015.37 C 1399.06 1017.72 1393.41 1022.09 1389.51 1023.37 C 1382.41 1024.52 1375.53 1023.33 1369.51 1019.37 C 1364.52 1014.79 1361.04 1010.28 1359.81 1003.53 C 1359.6 996.523 1359.92 989.918 1364.51 984.366 C 1372.9 975.613 1384.95 971.163 1396.64 976.905 Z"
          style="fill: rgb(62, 132, 235); stroke: rgb(24, 43, 94); stroke-width: 0px;" />
      </g>
    </g>
    <path id="Path_43" data-name="Path 43" d="M143,186.71h32.782V143H143Z" transform="translate(9.984 -5.561)"
      fill-rule="evenodd" style="fill: rgb(26, 32, 51);" />
    <path id="Path_44" data-name="Path 44"
      d="M196.71,159.855a5.438,5.438,0,0,0-.7.07c-.042-.164-.081-.329-.127-.493a5.457,5.457,0,1,0-5.4-9.372q-.181-.185-.366-.367a5.454,5.454,0,1,0-9.384-5.4c-.162-.046-.325-.084-.486-.126a5.467,5.467,0,1,0-10.788,0c-.162.042-.325.08-.486.126a5.457,5.457,0,1,0-9.384,5.4,21.843,21.843,0,1,0,36.421,21.02,5.452,5.452,0,1,0,.7-10.858"
      transform="translate(10.912 -6.025)" fill-rule="evenodd" style="fill: rgb(26, 32, 51);" />
    <path id="Path_45" data-name="Path 45" d="M153,124.855h32.782V103H153Z" transform="translate(10.912 -9.271)"
      fill-rule="evenodd" style="fill: rgb(26, 32, 51);" />
    <path id="Path_46" data-name="Path 46"
      d="M194.855,116.765a2.732,2.732,0,1,0,0-5.464,2.811,2.811,0,0,0-.349.035c-.022-.082-.04-.164-.063-.246a2.733,2.733,0,0,0-1.052-5.253,2.7,2.7,0,0,0-1.648.566q-.09-.093-.184-.184a2.7,2.7,0,0,0,.553-1.633,2.732,2.732,0,0,0-5.245-1.07,10.928,10.928,0,1,0,0,21.031,2.732,2.732,0,0,0,5.245-1.07,2.7,2.7,0,0,0-.553-1.633q.093-.09.184-.184a2.7,2.7,0,0,0,1.648.566,2.732,2.732,0,0,0,1.052-5.253c.023-.081.042-.164.063-.246a2.814,2.814,0,0,0,.349.035"
      transform="translate(12.767 -9.377)" fill-rule="evenodd" style="fill: rgb(26, 32, 51);" />
    <path id="Path_47" data-name="Path 47"
      d="M65.087,56.891a2.732,2.732,0,0,1-2.732-2.732,8.2,8.2,0,0,0-16.391,0,2.732,2.732,0,0,1-5.464,0,13.659,13.659,0,0,1,27.319,0,2.732,2.732,0,0,1-2.732,2.732"
      transform="translate(0.478 -15.068)" fill-rule="evenodd" style="fill: rgb(255, 255, 255);" />
    <path id="Path_48" data-name="Path 48"
      d="M103,191.347h65.565a21.854,21.854,0,0,0,21.855-21.855V93H124.855A21.854,21.854,0,0,0,103,114.855Z"
      transform="translate(6.275 -10.199)" fill-rule="evenodd" style="fill: rgb(151, 98, 231);" />
    <path style="fill: rgb(242, 242, 242); stroke: url(&quot;#gradient-8&quot;);"
      d="M 124.678 47.332 L 196.614 41.271 C 198.356 39.122 197.715 70.37 197.192 70.369 L 123.876 64.235 C 115.938 63.113 110.273 63.539 110.273 55.761 L 110.113 54.844 C 110.113 47.066 116.74 48.294 124.678 47.332 Z" />
    <path id="Path_49" data-name="Path 49"
      d="M 173.216 129.787 L 118.535 129.787 C 117.694 129.812 117.141 128.918 117.539 128.177 C 117.735 127.812 118.121 127.589 118.535 127.602 L 173.216 127.602 C 174.057 127.627 174.555 128.554 174.113 129.269 C 173.92 129.581 173.583 129.776 173.216 129.787 M 173.216 151.642 L 118.535 151.642 C 117.694 151.642 117.168 150.731 117.588 150.002 C 117.784 149.664 118.145 149.456 118.535 149.456 L 173.216 149.456 C 174.057 149.456 174.583 150.367 174.163 151.096 C 173.967 151.434 173.606 151.642 173.216 151.642 M 173.216 173.497 L 118.535 173.497 C 117.694 173.522 117.141 172.628 117.539 171.887 C 117.735 171.522 118.121 171.299 118.535 171.312 L 173.216 171.312 C 174.057 171.337 174.555 172.264 174.113 172.979 C 173.92 173.291 173.583 173.486 173.216 173.497 M 173.216 119.063 L 118.535 119.063 C 117.694 119.088 117.141 118.194 117.539 117.453 C 117.735 117.088 118.121 116.865 118.535 116.878 L 173.216 116.878 C 174.057 116.903 174.555 117.83 174.113 118.545 C 173.92 118.857 173.583 119.052 173.216 119.063 M 173.216 140.715 L 118.535 140.715 C 117.694 140.715 117.168 139.804 117.588 139.075 C 117.784 138.737 118.145 138.529 118.535 138.529 L 173.216 138.529 C 174.057 138.529 174.583 139.44 174.163 140.168 C 173.967 140.507 173.606 140.715 173.216 140.715 M 173.216 162.57 L 118.535 162.57 C 117.694 162.57 117.168 161.659 117.588 160.93 C 117.784 160.592 118.145 160.384 118.535 160.384 L 173.216 160.384 C 174.057 160.384 174.583 161.295 174.163 162.023 C 173.967 162.362 173.606 162.57 173.216 162.57 M 189.886 63.432 C 191.039 63.112 189.913 61.487 189.9 61.489 C 186.523 61.604 184.574 65.098 183.164 68.078 C 181.693 71.192 180.556 73.217 178.691 73.156 C 176.627 73.082 175.447 70.75 174.197 68.282 C 172.761 65.447 171.122 62.233 167.681 62.353 C 164.352 62.467 162.749 65.406 161.335 67.999 C 159.835 70.761 158.806 72.441 156.835 72.363 C 154.729 72.287 153.61 70.391 152.315 68.196 C 150.871 65.753 149.203 63.005 145.828 63.096 C 142.556 63.209 140.949 65.702 139.528 67.904 C 138.028 70.232 136.976 71.65 134.977 71.566 C 132.821 71.49 131.707 69.916 130.419 68.094 C 128.972 66.047 127.342 63.731 123.977 63.843 C 120.777 63.952 119.17 65.996 117.753 67.797 C 116.407 69.506 115.353 70.859 113.132 70.774 C 112.291 70.744 111.732 71.635 112.126 72.379 C 112.309 72.725 112.663 72.946 113.053 72.96 C 116.353 73.07 118.02 70.993 119.47 69.15 C 120.756 67.515 121.87 66.105 124.052 66.03 C 126.152 65.94 127.143 67.248 128.636 69.357 C 130.053 71.357 131.662 73.634 134.899 73.751 C 138.29 73.865 139.921 71.331 141.366 69.088 C 142.658 67.088 143.772 65.354 145.901 65.281 C 147.86 65.208 148.927 66.756 150.43 69.303 C 151.847 71.703 153.453 74.424 156.754 74.544 C 160.169 74.662 161.818 71.681 163.254 69.044 C 164.499 66.762 165.673 64.607 167.754 64.535 C 169.713 64.489 170.735 66.278 172.246 69.267 C 173.658 72.057 175.259 75.217 178.611 75.338 L 178.796 75.338 C 182.144 75.338 183.733 71.978 185.139 69.007 C 186.031 67.12 186.971 64.242 189.886 63.432 Z"
      transform="translate(7.109 -13.11)" fill-rule="evenodd" />
    <path id="Path_50" data-name="Path 50" d="M83,186.71h43.71V143H83Z" transform="translate(4.42 -5.561)"
      fill-rule="evenodd" style="fill: rgb(26, 32, 51);" />
    <g id="Group_8" data-name="Group 8" transform="matrix(0.966, -0.259, 0.259, 0.966, 109.327, 91.085)">
      <rect id="Rectangle_3" data-name="Rectangle 3" width="92.361" height="36.462" rx="2" transform="translate(0 0)"
        fill="#d8d8d8" />
      <g id="Group_2" data-name="Group 2" transform="translate(1.531 23.03)">
        <rect id="Rectangle_4" data-name="Rectangle 4" width="5.336" height="5.336" rx="1"
          transform="translate(16.797 0)" fill="#4a4a4a" />
        <rect id="Rectangle_5" data-name="Rectangle 5" width="5.336" height="5.336" rx="1"
          transform="translate(23.12 0)" fill="#4a4a4a" />
        <rect id="Rectangle_6" data-name="Rectangle 6" width="5.336" height="5.336" rx="1"
          transform="translate(29.444 0)" fill="#4a4a4a" />
        <rect id="Rectangle_7" data-name="Rectangle 7" width="5.336" height="5.336" rx="1"
          transform="translate(35.768 0)" fill="#4a4a4a" />
        <rect id="Rectangle_8" data-name="Rectangle 8" width="5.336" height="5.336" rx="1"
          transform="translate(42.091 0)" fill="#4a4a4a" />
        <rect id="Rectangle_9" data-name="Rectangle 9" width="5.336" height="5.336" rx="1"
          transform="translate(48.415 0)" fill="#4a4a4a" />
        <rect id="Rectangle_10" data-name="Rectangle 10" width="5.336" height="5.336" rx="1"
          transform="translate(54.739 0)" fill="#4a4a4a" />
        <rect id="Rectangle_11" data-name="Rectangle 11" width="5.336" height="5.336" rx="1"
          transform="translate(61.063 0)" fill="#4a4a4a" />
        <rect id="Rectangle_12" data-name="Rectangle 12" width="5.336" height="5.336" rx="1"
          transform="translate(67.386 0)" fill="#4a4a4a" />
        <path id="Path_51" data-name="Path 51"
          d="M1.093,0H14.518a1.093,1.093,0,0,1,1.093,1.093V4.243a1.093,1.093,0,0,1-1.093,1.093H1.093A1.093,1.093,0,0,1,0,4.243V1.093A1.093,1.093,0,0,1,1.093,0ZM75,0H88.426a1.093,1.093,0,0,1,1.093,1.093V4.243a1.093,1.093,0,0,1-1.093,1.093H75a1.093,1.093,0,0,1-1.093-1.093V1.093A1.093,1.093,0,0,1,75,0Z"
          transform="translate(0 0)" fill="#4a4a4a" fill-rule="evenodd" />
      </g>
      <g id="Group_3" data-name="Group 3" transform="translate(1.531 10.261)">
        <path id="Path_52" data-name="Path 52"
          d="M1.093,0H6.218A1.093,1.093,0,0,1,7.31,1.093V4.242A1.093,1.093,0,0,1,6.218,5.335H1.093A1.093,1.093,0,0,1,0,4.242V1.093A1.093,1.093,0,0,1,1.093,0Z"
          transform="translate(0 0)" fill="#4a4a4a" fill-rule="evenodd" />
        <rect id="Rectangle_13" data-name="Rectangle 13" width="5.336" height="5.336" rx="1"
          transform="translate(8.299 0)" fill="#4a4a4a" />
        <rect id="Rectangle_14" data-name="Rectangle 14" width="5.336" height="5.336" rx="1"
          transform="translate(14.623 0)" fill="#4a4a4a" />
        <rect id="Rectangle_15" data-name="Rectangle 15" width="5.336" height="5.336" rx="1"
          transform="translate(20.947 0)" fill="#4a4a4a" />
        <rect id="Rectangle_16" data-name="Rectangle 16" width="5.336" height="5.336" rx="1"
          transform="translate(27.271 0)" fill="#4a4a4a" />
        <rect id="Rectangle_17" data-name="Rectangle 17" width="5.336" height="5.336" rx="1"
          transform="translate(33.594 0)" fill="#4a4a4a" />
        <rect id="Rectangle_18" data-name="Rectangle 18" width="5.336" height="5.336" rx="1"
          transform="translate(39.918 0)" fill="#4a4a4a" />
        <rect id="Rectangle_19" data-name="Rectangle 19" width="5.336" height="5.336" rx="1"
          transform="translate(46.242 0)" fill="#4a4a4a" />
        <rect id="Rectangle_20" data-name="Rectangle 20" width="5.336" height="5.336" rx="1"
          transform="translate(52.565 0)" fill="#4a4a4a" />
        <rect id="Rectangle_21" data-name="Rectangle 21" width="5.336" height="5.336" rx="1"
          transform="translate(58.888 0)" fill="#4a4a4a" />
        <rect id="Rectangle_22" data-name="Rectangle 22" width="5.336" height="5.336" rx="1"
          transform="translate(65.212 0)" fill="#4a4a4a" />
        <rect id="Rectangle_23" data-name="Rectangle 23" width="5.336" height="5.336" rx="1"
          transform="translate(71.536 0)" fill="#4a4a4a" />
        <rect id="Rectangle_24" data-name="Rectangle 24" width="5.336" height="5.336" rx="1"
          transform="translate(77.859 0)" fill="#4a4a4a" />
        <rect id="Rectangle_25" data-name="Rectangle 25" width="5.336" height="5.336" rx="1"
          transform="translate(84.183 0)" fill="#4a4a4a" />
      </g>
      <g id="Group_4" data-name="Group 4" transform="translate(91.05 9.546) rotate(180)">
        <path id="Path_53" data-name="Path 53"
          d="M1.093,0H6.219A1.093,1.093,0,0,1,7.312,1.093v3.15A1.093,1.093,0,0,1,6.219,5.336H1.093A1.093,1.093,0,0,1,0,4.243V1.093A1.093,1.093,0,0,1,1.093,0Z"
          transform="translate(0 0)" fill="#4a4a4a" fill-rule="evenodd" />
        <rect id="Rectangle_26" data-name="Rectangle 26" width="5.336" height="5.336" rx="1"
          transform="translate(8.299 0)" fill="#4a4a4a" />
        <rect id="Rectangle_27" data-name="Rectangle 27" width="5.336" height="5.336" rx="1"
          transform="translate(14.623 0)" fill="#4a4a4a" />
        <rect id="Rectangle_28" data-name="Rectangle 28" width="5.336" height="5.336" rx="1"
          transform="translate(20.947 0)" fill="#4a4a4a" />
        <rect id="Rectangle_29" data-name="Rectangle 29" width="5.336" height="5.336" rx="1"
          transform="translate(27.271 0)" fill="#4a4a4a" />
        <rect id="Rectangle_30" data-name="Rectangle 30" width="5.336" height="5.336" rx="1"
          transform="translate(33.594 0)" fill="#4a4a4a" />
        <rect id="Rectangle_31" data-name="Rectangle 31" width="5.336" height="5.336" rx="1"
          transform="translate(39.918 0)" fill="#4a4a4a" />
        <rect id="Rectangle_32" data-name="Rectangle 32" width="5.336" height="5.336" rx="1"
          transform="translate(46.242 0)" fill="#4a4a4a" />
        <rect id="Rectangle_33" data-name="Rectangle 33" width="5.336" height="5.336" rx="1"
          transform="translate(52.565 0)" fill="#4a4a4a" />
        <rect id="Rectangle_34" data-name="Rectangle 34" width="5.336" height="5.336" rx="1"
          transform="translate(58.889 0)" fill="#4a4a4a" />
        <rect id="Rectangle_35" data-name="Rectangle 35" width="5.336" height="5.336" rx="1"
          transform="translate(65.213 0)" fill="#4a4a4a" />
        <rect id="Rectangle_36" data-name="Rectangle 36" width="5.336" height="5.336" rx="1"
          transform="translate(71.537 0)" fill="#4a4a4a" />
        <rect id="Rectangle_37" data-name="Rectangle 37" width="5.336" height="5.336" rx="1"
          transform="translate(77.86 0)" fill="#4a4a4a" />
        <rect id="Rectangle_38" data-name="Rectangle 38" width="5.336" height="5.336" rx="1"
          transform="translate(84.183 0)" fill="#4a4a4a" />
        <rect id="Rectangle_39" data-name="Rectangle 39" width="5.336" height="5.336" rx="1"
          transform="translate(8.299 0)" fill="#4a4a4a" />
        <rect id="Rectangle_40" data-name="Rectangle 40" width="5.336" height="5.336" rx="1"
          transform="translate(14.623 0)" fill="#4a4a4a" />
        <rect id="Rectangle_41" data-name="Rectangle 41" width="5.336" height="5.336" rx="1"
          transform="translate(20.947 0)" fill="#4a4a4a" />
        <rect id="Rectangle_42" data-name="Rectangle 42" width="5.336" height="5.336" rx="1"
          transform="translate(27.271 0)" fill="#4a4a4a" />
        <rect id="Rectangle_43" data-name="Rectangle 43" width="5.336" height="5.336" rx="1"
          transform="translate(33.594 0)" fill="#4a4a4a" />
        <rect id="Rectangle_44" data-name="Rectangle 44" width="5.336" height="5.336" rx="1"
          transform="translate(39.918 0)" fill="#4a4a4a" />
        <rect id="Rectangle_45" data-name="Rectangle 45" width="5.336" height="5.336" rx="1"
          transform="translate(46.242 0)" fill="#4a4a4a" />
        <rect id="Rectangle_46" data-name="Rectangle 46" width="5.336" height="5.336" rx="1"
          transform="translate(52.565 0)" fill="#4a4a4a" />
        <rect id="Rectangle_47" data-name="Rectangle 47" width="5.336" height="5.336" rx="1"
          transform="translate(58.889 0)" fill="#4a4a4a" />
        <rect id="Rectangle_48" data-name="Rectangle 48" width="5.336" height="5.336" rx="1"
          transform="translate(65.213 0)" fill="#4a4a4a" />
        <rect id="Rectangle_49" data-name="Rectangle 49" width="5.336" height="5.336" rx="1"
          transform="translate(71.537 0)" fill="#4a4a4a" />
        <rect id="Rectangle_50" data-name="Rectangle 50" width="5.336" height="5.336" rx="1"
          transform="translate(77.86 0)" fill="#4a4a4a" />
        <rect id="Rectangle_51" data-name="Rectangle 51" width="5.336" height="5.336" rx="1"
          transform="translate(84.183 0)" fill="#4a4a4a" />
      </g>
      <g id="Group_6" data-name="Group 6" transform="translate(1.531 16.584)">
        <path id="Path_54" data-name="Path 54"
          d="M1.093,0h7.3A1.093,1.093,0,0,1,9.485,1.093v3.15A1.093,1.093,0,0,1,8.392,5.336h-7.3A1.093,1.093,0,0,1,0,4.243V1.094A1.093,1.093,0,0,1,1.093,0Z"
          transform="translate(0 0)" fill="#4a4a4a" fill-rule="evenodd" />
        <g id="Group_5" data-name="Group 5" transform="translate(10.671 0)">
          <rect id="Rectangle_52" data-name="Rectangle 52" width="5.336" height="5.336" rx="1" fill="#4a4a4a" />
          <rect id="Rectangle_53" data-name="Rectangle 53" width="5.336" height="5.336" rx="1"
            transform="translate(6.324 0)" fill="#4a4a4a" />
          <rect id="Rectangle_54" data-name="Rectangle 54" width="5.336" height="5.336" rx="1"
            transform="translate(12.647 0)" fill="#4a4a4a" />
          <rect id="Rectangle_55" data-name="Rectangle 55" width="5.336" height="5.336" rx="1"
            transform="translate(18.971 0)" fill="#4a4a4a" />
          <rect id="Rectangle_56" data-name="Rectangle 56" width="5.336" height="5.336" rx="1"
            transform="translate(25.295 0)" fill="#4a4a4a" />
          <rect id="Rectangle_57" data-name="Rectangle 57" width="5.336" height="5.336" rx="1"
            transform="translate(31.619 0)" fill="#4a4a4a" />
          <rect id="Rectangle_58" data-name="Rectangle 58" width="5.336" height="5.336" rx="1"
            transform="translate(37.942 0)" fill="#4a4a4a" />
          <rect id="Rectangle_59" data-name="Rectangle 59" width="5.336" height="5.336" rx="1"
            transform="translate(44.265 0)" fill="#4a4a4a" />
          <rect id="Rectangle_60" data-name="Rectangle 60" width="5.336" height="5.336" rx="1"
            transform="translate(50.589 0)" fill="#4a4a4a" />
          <rect id="Rectangle_61" data-name="Rectangle 61" width="5.336" height="5.336" rx="1"
            transform="translate(56.912 0)" fill="#4a4a4a" />
          <rect id="Rectangle_62" data-name="Rectangle 62" width="5.336" height="5.336" rx="1"
            transform="translate(63.236 0)" fill="#4a4a4a" />
        </g>
        <path id="Path_55" data-name="Path 55"
          d="M1.094,0H8A1.093,1.093,0,0,1,9.091,1.093v3.15A1.093,1.093,0,0,1,8,5.336H1.093A1.093,1.093,0,0,1,0,4.243V1.094A1.093,1.093,0,0,1,1.093,0Z"
          transform="translate(80.428 0)" fill="#4a4a4a" fill-rule="evenodd" />
      </g>
      <g id="Group_7" data-name="Group 7" transform="translate(1.531 29.627)">
        <rect id="Rectangle_63" data-name="Rectangle 63" width="5.336" height="5.336" rx="1" transform="translate(0 0)"
          fill="#4a4a4a" />
        <rect id="Rectangle_64" data-name="Rectangle 64" width="5.336" height="5.336" rx="1"
          transform="translate(6.324 0)" fill="#4a4a4a" />
        <rect id="Rectangle_65" data-name="Rectangle 65" width="5.336" height="5.336" rx="1"
          transform="translate(12.647 0)" fill="#4a4a4a" />
        <rect id="Rectangle_66" data-name="Rectangle 66" width="5.336" height="5.336" rx="1"
          transform="translate(18.971 0)" fill="#4a4a4a" />
        <path id="Path_56" data-name="Path 56"
          d="M1.093,0H31.515a1.093,1.093,0,0,1,1.093,1.093V4.244a1.093,1.093,0,0,1-1.093,1.093H1.093A1.093,1.093,0,0,1,0,4.244V1.093A1.093,1.093,0,0,1,1.093,0ZM34.687,0h3.942a1.093,1.093,0,0,1,1.093,1.093V4.244a1.093,1.093,0,0,1-1.093,1.093H34.687a1.093,1.093,0,0,1-1.093-1.093V1.093A1.093,1.093,0,0,1,34.687,0Z"
          transform="translate(25.294 0)" fill="#4a4a4a" fill-rule="evenodd" />
        <rect id="Rectangle_67" data-name="Rectangle 67" width="5.336" height="5.336" rx="1"
          transform="translate(66.003 0)" fill="#4a4a4a" />
        <rect id="Rectangle_68" data-name="Rectangle 68" width="5.336" height="5.336" rx="1"
          transform="translate(72.327 0)" fill="#4a4a4a" />
        <rect id="Rectangle_69" data-name="Rectangle 69" width="5.336" height="5.336" rx="1"
          transform="translate(84.183 0)" fill="#4a4a4a" />
        <path id="Path_57" data-name="Path 57"
          d="M5.336,0V1.18A1.093,1.093,0,0,1,4.243,2.273H1.093A1.093,1.093,0,0,1,0,1.18V0Z"
          transform="translate(83.59 2.273) rotate(180)" fill="#4a4a4a" />
        <path id="Path_58" data-name="Path 58"
          d="M5.336,0V1.18A1.093,1.093,0,0,1,4.243,2.273H1.093A1.093,1.093,0,0,1,0,1.18V0Z"
          transform="translate(78.255 3.063)" fill="#4a4a4a" />
      </g>
      <rect id="Rectangle_70" data-name="Rectangle 70" width="88.927" height="2.371" rx="1.085"
        transform="translate(1.925 1.17)" fill="#4a4a4a" />
      <rect id="Rectangle_71" data-name="Rectangle 71" width="4.986" height="1.581" rx="0.723"
        transform="translate(4.1 1.566)" fill="#d8d8d8" opacity="0.136" />
      <rect id="Rectangle_72" data-name="Rectangle 72" width="4.986" height="1.581" rx="0.723"
        transform="translate(10.923 1.566)" fill="#d8d8d8" opacity="0.136" />
      <rect id="Rectangle_73" data-name="Rectangle 73" width="4.986" height="1.581" rx="0.723"
        transform="translate(16.173 1.566)" fill="#d8d8d8" opacity="0.136" />
      <rect id="Rectangle_74" data-name="Rectangle 74" width="4.986" height="1.581" rx="0.723"
        transform="translate(21.421 1.566)" fill="#d8d8d8" opacity="0.136" />
      <rect id="Rectangle_75" data-name="Rectangle 75" width="4.986" height="1.581" rx="0.723"
        transform="translate(26.671 1.566)" fill="#d8d8d8" opacity="0.136" />
      <rect id="Rectangle_76" data-name="Rectangle 76" width="4.986" height="1.581" rx="0.723"
        transform="translate(33.232 1.566)" fill="#d8d8d8" opacity="0.136" />
      <rect id="Rectangle_77" data-name="Rectangle 77" width="4.986" height="1.581" rx="0.723"
        transform="translate(38.48 1.566)" fill="#d8d8d8" opacity="0.136" />
      <rect id="Rectangle_78" data-name="Rectangle 78" width="4.986" height="1.581" rx="0.723"
        transform="translate(43.73 1.566)" fill="#d8d8d8" opacity="0.136" />
      <rect id="Rectangle_79" data-name="Rectangle 79" width="4.986" height="1.581" rx="0.723"
        transform="translate(48.978 1.566)" fill="#d8d8d8" opacity="0.136" />
      <rect id="Rectangle_80" data-name="Rectangle 80" width="4.986" height="1.581" rx="0.723"
        transform="translate(55.54 1.566)" fill="#d8d8d8" opacity="0.136" />
      <rect id="Rectangle_81" data-name="Rectangle 81" width="4.986" height="1.581" rx="0.723"
        transform="translate(60.788 1.566)" fill="#d8d8d8" opacity="0.136" />
      <rect id="Rectangle_82" data-name="Rectangle 82" width="4.986" height="1.581" rx="0.723"
        transform="translate(66.038 1.566)" fill="#d8d8d8" opacity="0.136" />
      <rect id="Rectangle_83" data-name="Rectangle 83" width="4.986" height="1.581" rx="0.723"
        transform="translate(72.599 1.566)" fill="#d8d8d8" opacity="0.136" />
      <rect id="Rectangle_84" data-name="Rectangle 84" width="4.986" height="1.581" rx="0.723"
        transform="translate(77.847 1.566)" fill="#d8d8d8" opacity="0.136" />
      <rect id="Rectangle_85" data-name="Rectangle 85" width="4.986" height="1.581" rx="0.723"
        transform="translate(83.097 1.566)" fill="#d8d8d8" opacity="0.136" />
    </g>
    <path id="Path_59" data-name="Path 59"
      d="M146.71,159.855a5.439,5.439,0,0,0-.7.07c-.042-.164-.081-.329-.127-.493a5.457,5.457,0,1,0-5.4-9.372q-.181-.185-.366-.367a5.454,5.454,0,1,0-9.384-5.4c-.162-.046-.325-.084-.486-.126a5.467,5.467,0,1,0-10.788,0c-.162.042-.325.08-.486.126a5.457,5.457,0,1,0-9.384,5.4,21.843,21.843,0,1,0,36.421,21.02,5.452,5.452,0,1,0,.7-10.858"
      transform="translate(6.275 -6.025)" fill-rule="evenodd"
      style="fill: rgb(26, 32, 51); stroke: url(&quot;#gradient-0&quot;);" />
    <path id="Path_60" data-name="Path 60" d="M83,124.855h43.71V103H83Z" transform="translate(4.42 -9.271)"
      fill-rule="evenodd" style="fill: rgb(26, 32, 51);" />
    <path id="Path_61" data-name="Path 61"
      d="M134.855,116.765a2.732,2.732,0,1,0,0-5.464,2.811,2.811,0,0,0-.349.035c-.022-.082-.04-.164-.063-.246a2.733,2.733,0,0,0-1.052-5.253,2.7,2.7,0,0,0-1.648.566q-.09-.093-.184-.184a2.7,2.7,0,0,0,.553-1.633,2.732,2.732,0,0,0-5.245-1.07,10.928,10.928,0,1,0,0,21.031,2.732,2.732,0,0,0,5.245-1.07,2.7,2.7,0,0,0-.553-1.633q.093-.09.184-.184a2.7,2.7,0,0,0,1.648.566,2.732,2.732,0,0,0,1.052-5.253c.023-.081.042-.164.063-.246a2.811,2.811,0,0,0,.349.035"
      transform="translate(7.202 -9.377)" fill-rule="evenodd"
      style="fill: rgb(26, 32, 51); stroke: url(&quot;#gradient-9&quot;);" />
    <path id="Path_62" data-name="Path 62"
      d="M143.232,42.33a2.967,2.967,0,0,1-.535-.055,2.754,2.754,0,0,1-.514-.153,2.838,2.838,0,0,1-.471-.251,4.139,4.139,0,0,1-.415-.339,3.2,3.2,0,0,1-.338-.415A2.7,2.7,0,0,1,140.5,39.6a2.968,2.968,0,0,1,.055-.535,3.152,3.152,0,0,1,.152-.514,2.874,2.874,0,0,1,.252-.47,2.633,2.633,0,0,1,.753-.754,2.837,2.837,0,0,1,.471-.251,2.753,2.753,0,0,1,.514-.153,2.527,2.527,0,0,1,1.071,0,2.654,2.654,0,0,1,.983.4,4.139,4.139,0,0,1,.415.339,4.019,4.019,0,0,1,.339.415,2.786,2.786,0,0,1,.251.47,2.864,2.864,0,0,1,.208,1.049,2.77,2.77,0,0,1-.8,1.934,4.139,4.139,0,0,1-.415.339,2.722,2.722,0,0,1-1.519.459m21.855-1.366a2.789,2.789,0,0,1-1.935-.8,4.162,4.162,0,0,1-.338-.415,2.7,2.7,0,0,1-.459-1.519,2.789,2.789,0,0,1,.8-1.934,4.139,4.139,0,0,1,.415-.339,2.838,2.838,0,0,1,.471-.251,2.752,2.752,0,0,1,.514-.153,2.527,2.527,0,0,1,1.071,0,2.654,2.654,0,0,1,.983.4,4.139,4.139,0,0,1,.415.339,2.79,2.79,0,0,1,.8,1.934,3.069,3.069,0,0,1-.055.535,2.779,2.779,0,0,1-.153.514,3.885,3.885,0,0,1-.251.47,4.02,4.02,0,0,1-.339.415,4.138,4.138,0,0,1-.415.339,2.722,2.722,0,0,1-1.519.459"
      transform="translate(9.753 -15.532)" fill-rule="evenodd" style="fill: rgb(255, 255, 255);" />
  </g>
</svg>